<?xml version="1.0" encoding="UTF-8" standalone="no"?>
<!DOCTYPE svg PUBLIC "-//W3C//DTD SVG 1.1//EN"
 "http://www.w3.org/Graphics/SVG/1.1/DTD/svg11.dtd">
<!-- Generated by graphviz version 2.49.1 (20210923.0004)
 -->
<!-- Title: test Pages: 1 -->
<svg width="278pt" height="66pt"
 viewBox="0.00 0.00 278.00 66.00" xmlns="http://www.w3.org/2000/svg" xmlns:xlink="http://www.w3.org/1999/xlink">
<g id="graph0" class="graph" transform="scale(1 1) rotate(0) translate(4 62)">
<title>test</title>
<polygon fill="white" stroke="transparent" points="-4,4 -4,-62 274,-62 274,4 -4,4"/>
<!-- Node1 -->
<g id="node1" class="node">
<title>Node1</title>
<g id="a_node1"><a xlink:title="Self&#45;test implementation.">
<polygon fill="#bfbfbf" stroke="black" points="0,-19.5 0,-38.5 33,-38.5 33,-19.5 0,-19.5"/>
<text text-anchor="middle" x="16.5" y="-26.5" font-family="Helvetica,sans-Serif" font-size="10.00">test</text>
</a>
</g>
</g>
<!-- Node2 -->
<g id="node2" class="node">
<title>Node2</title>
<g id="a_node2"><a target="_blank" xlink:href="http://en.cppreference.com/w/cpp/io/manip/endl.html#" xlink:title=" ">
<polygon fill="white" stroke="black" points="195.5,-38.5 195.5,-57.5 249.5,-57.5 249.5,-38.5 195.5,-38.5"/>
<text text-anchor="middle" x="222.5" y="-45.5" font-family="Helvetica,sans-Serif" font-size="10.00">std::endl</text>
</a>
</g>
</g>
<!-- Node1&#45;&gt;Node2 -->
<g id="edge1" class="edge">
<title>Node1&#45;&gt;Node2</title>
<path fill="none" stroke="midnightblue" d="M33.17,-30.46C65.47,-33.47 140.21,-40.43 185.22,-44.62"/>
<polygon fill="midnightblue" stroke="midnightblue" points="185.15,-48.13 195.43,-45.57 185.8,-41.16 185.15,-48.13"/>
</g>
<!-- Node3 -->
<g id="node3" class="node">
<title>Node3</title>
<g id="a_node3"><a xlink:href="../../de/d72/geometric__dist_8cpp.html#acecd4e468d60302108950d98339a80c6" target="_top" xlink:title="Tests the sampling method of the geometric distribution.">
<polygon fill="white" stroke="black" points="69,-0.5 69,-19.5 139,-19.5 139,-0.5 69,-0.5"/>
<text text-anchor="middle" x="104" y="-7.5" font-family="Helvetica,sans-Serif" font-size="10.00">sample_test</text>
</a>
</g>
</g>
<!-- Node1&#45;&gt;Node3 -->
<g id="edge2" class="edge">
<title>Node1&#45;&gt;Node3</title>
<path fill="none" stroke="midnightblue" d="M33.18,-25.52C40.55,-23.88 49.73,-21.84 58.99,-19.78"/>
<polygon fill="midnightblue" stroke="midnightblue" points="59.99,-23.14 68.99,-17.56 58.47,-16.31 59.99,-23.14"/>
</g>
<!-- Node3&#45;&gt;Node2 -->
<g id="edge3" class="edge">
<title>Node3&#45;&gt;Node2</title>
<path fill="none" stroke="midnightblue" d="M134.4,-19.59C149.92,-24.65 169.09,-30.9 185.49,-36.26"/>
<polygon fill="midnightblue" stroke="midnightblue" points="184.7,-39.68 195.29,-39.45 186.87,-33.02 184.7,-39.68"/>
</g>
<!-- Node4 -->
<g id="node4" class="node">
<title>Node4</title>
<g id="a_node4"><a target="_blank" xlink:href="http://en.cppreference.com/w/cpp/container/vector/resize.html#" xlink:title=" ">
<polygon fill="white" stroke="black" points="175,-0.5 175,-19.5 270,-19.5 270,-0.5 175,-0.5"/>
<text text-anchor="middle" x="222.5" y="-7.5" font-family="Helvetica,sans-Serif" font-size="10.00">std::vector::resize</text>
</a>
</g>
</g>
<!-- Node3&#45;&gt;Node4 -->
<g id="edge4" class="edge">
<title>Node3&#45;&gt;Node4</title>
<path fill="none" stroke="midnightblue" d="M139.01,-10C147.02,-10 155.78,-10 164.5,-10"/>
<polygon fill="midnightblue" stroke="midnightblue" points="164.67,-13.5 174.67,-10 164.67,-6.5 164.67,-13.5"/>
</g>
</g>
</svg>
