<?xml version="1.0" encoding="UTF-8" standalone="no"?>
<!DOCTYPE svg PUBLIC "-//W3C//DTD SVG 1.1//EN"
 "http://www.w3.org/Graphics/SVG/1.1/DTD/svg11.dtd">
<!-- Generated by graphviz version 2.49.1 (20210923.0004)
 -->
<!-- Title: test Pages: 1 -->
<svg width="630pt" height="407pt"
 viewBox="0.00 0.00 630.00 407.00" xmlns="http://www.w3.org/2000/svg" xmlns:xlink="http://www.w3.org/1999/xlink">
<g id="graph0" class="graph" transform="scale(1 1) rotate(0) translate(4 403)">
<title>test</title>
<polygon fill="white" stroke="transparent" points="-4,4 -4,-403 626,-403 626,4 -4,4"/>
<!-- Node1 -->
<g id="node1" class="node">
<title>Node1</title>
<g id="a_node1"><a xlink:title="Self&#45;test implementation.">
<polygon fill="#bfbfbf" stroke="black" points="0,-191.5 0,-210.5 33,-210.5 33,-191.5 0,-191.5"/>
<text text-anchor="middle" x="16.5" y="-198.5" font-family="Helvetica,sans-Serif" font-size="10.00">test</text>
</a>
</g>
</g>
<!-- Node2 -->
<g id="node2" class="node">
<title>Node2</title>
<g id="a_node2"><a xlink:href="../../dc/d97/classprobability_1_1geometric__distribution.html#a7362f7161d86cd025888e55158033088" target="_top" xlink:title="The cumulative distribution function.">
<polygon fill="white" stroke="black" points="242,-273.5 242,-314.5 366,-314.5 366,-273.5 242,-273.5"/>
<text text-anchor="start" x="250" y="-302.5" font-family="Helvetica,sans-Serif" font-size="10.00">probability::geometric</text>
<text text-anchor="start" x="250" y="-291.5" font-family="Helvetica,sans-Serif" font-size="10.00">_distribution::cumulative</text>
<text text-anchor="middle" x="304" y="-280.5" font-family="Helvetica,sans-Serif" font-size="10.00">_distribution</text>
</a>
</g>
</g>
<!-- Node1&#45;&gt;Node2 -->
<g id="edge1" class="edge">
<title>Node1&#45;&gt;Node2</title>
<path fill="none" stroke="midnightblue" d="M28.17,-210.58C38.08,-218.99 53.58,-230.95 69,-238 120.96,-261.76 184.19,-276.12 231.82,-284.34"/>
<polygon fill="midnightblue" stroke="midnightblue" points="231.29,-287.8 241.73,-286 232.45,-280.89 231.29,-287.8"/>
</g>
<!-- Node4 -->
<g id="node4" class="node">
<title>Node4</title>
<g id="a_node4"><a target="_blank" xlink:href="http://en.cppreference.com/w/cpp/io/manip/endl.html#" xlink:title=" ">
<polygon fill="white" stroke="black" points="277,-235.5 277,-254.5 331,-254.5 331,-235.5 277,-235.5"/>
<text text-anchor="middle" x="304" y="-242.5" font-family="Helvetica,sans-Serif" font-size="10.00">std::endl</text>
</a>
</g>
</g>
<!-- Node1&#45;&gt;Node4 -->
<g id="edge3" class="edge">
<title>Node1&#45;&gt;Node4</title>
<path fill="none" stroke="midnightblue" d="M33.14,-205.86C43.28,-208.85 56.82,-212.58 69,-215 138.32,-228.8 220.5,-237.62 266.72,-241.91"/>
<polygon fill="midnightblue" stroke="midnightblue" points="266.56,-245.41 276.84,-242.83 267.2,-238.44 266.56,-245.41"/>
</g>
<!-- Node5 -->
<g id="node5" class="node">
<title>Node5</title>
<g id="a_node5"><a xlink:href="../../dc/d97/classprobability_1_1geometric__distribution.html#af098d2ba2ae150ef158790b34d20183c" target="_top" xlink:title="The expected value of a geometrically distributed random variable X.">
<polygon fill="white" stroke="black" points="231,-186 231,-216 377,-216 377,-186 231,-186"/>
<text text-anchor="start" x="239" y="-204" font-family="Helvetica,sans-Serif" font-size="10.00">probability::geometric</text>
<text text-anchor="middle" x="304" y="-193" font-family="Helvetica,sans-Serif" font-size="10.00">_distribution::expected_value</text>
</a>
</g>
</g>
<!-- Node1&#45;&gt;Node5 -->
<g id="edge4" class="edge">
<title>Node1&#45;&gt;Node5</title>
<path fill="none" stroke="midnightblue" d="M33.26,-201C68.32,-201 154.88,-201 220.56,-201"/>
<polygon fill="midnightblue" stroke="midnightblue" points="220.92,-204.5 230.92,-201 220.92,-197.5 220.92,-204.5"/>
</g>
<!-- Node6 -->
<g id="node6" class="node">
<title>Node6</title>
<g id="a_node6"><a xlink:href="../../dc/d97/classprobability_1_1geometric__distribution.html#afe8e3cec3f9ec89b697e674d1a4453cd" target="_top" xlink:title="The inverse cumulative distribution function.">
<polygon fill="white" stroke="black" points="413,-87.5 413,-128.5 537,-128.5 537,-87.5 413,-87.5"/>
<text text-anchor="start" x="421" y="-116.5" font-family="Helvetica,sans-Serif" font-size="10.00">probability::geometric</text>
<text text-anchor="start" x="421" y="-105.5" font-family="Helvetica,sans-Serif" font-size="10.00">_distribution::inverse</text>
<text text-anchor="middle" x="475" y="-94.5" font-family="Helvetica,sans-Serif" font-size="10.00">_cumulative_distribution</text>
</a>
</g>
</g>
<!-- Node1&#45;&gt;Node6 -->
<g id="edge5" class="edge">
<title>Node1&#45;&gt;Node6</title>
<path fill="none" stroke="midnightblue" d="M23.04,-191.35C31.21,-178.11 47.84,-154.76 69,-144 175.57,-89.82 318.4,-91.57 402.86,-98.96"/>
<polygon fill="midnightblue" stroke="midnightblue" points="402.59,-102.45 412.87,-99.89 403.23,-95.48 402.59,-102.45"/>
</g>
<!-- Node8 -->
<g id="node8" class="node">
<title>Node8</title>
<g id="a_node8"><a xlink:href="../../dc/d97/classprobability_1_1geometric__distribution.html#ae8bc1cc59c743547b5af20308e8610d2" target="_top" xlink:title="The probability density function.">
<polygon fill="white" stroke="black" points="71,-357.5 71,-398.5 193,-398.5 193,-357.5 71,-357.5"/>
<text text-anchor="start" x="79" y="-386.5" font-family="Helvetica,sans-Serif" font-size="10.00">probability::geometric</text>
<text text-anchor="start" x="79" y="-375.5" font-family="Helvetica,sans-Serif" font-size="10.00">_distribution::probability</text>
<text text-anchor="middle" x="132" y="-364.5" font-family="Helvetica,sans-Serif" font-size="10.00">_density</text>
</a>
</g>
</g>
<!-- Node1&#45;&gt;Node8 -->
<g id="edge7" class="edge">
<title>Node1&#45;&gt;Node8</title>
<path fill="none" stroke="midnightblue" d="M18.48,-210.69C21.51,-235.92 32.8,-304.55 69,-346 70.52,-347.74 72.16,-349.4 73.89,-350.98"/>
<polygon fill="midnightblue" stroke="midnightblue" points="71.98,-353.94 81.99,-357.41 76.34,-348.45 71.98,-353.94"/>
</g>
<!-- Node9 -->
<g id="node9" class="node">
<title>Node9</title>
<g id="a_node9"><a xlink:href="../../dc/d97/classprobability_1_1geometric__distribution.html#a1af016f6437abfd09cb4099ea539e31b" target="_top" xlink:title="This function computes the probability to have success in a given range of tries.">
<polygon fill="white" stroke="black" points="69,-306 69,-336 195,-336 195,-306 69,-306"/>
<text text-anchor="start" x="77" y="-324" font-family="Helvetica,sans-Serif" font-size="10.00">probability::geometric</text>
<text text-anchor="middle" x="132" y="-313" font-family="Helvetica,sans-Serif" font-size="10.00">_distribution::range_tries</text>
</a>
</g>
</g>
<!-- Node1&#45;&gt;Node9 -->
<g id="edge9" class="edge">
<title>Node1&#45;&gt;Node9</title>
<path fill="none" stroke="midnightblue" d="M20.81,-210.64C27.4,-228.58 43.73,-267.42 69,-291 72.84,-294.58 77.18,-297.81 81.74,-300.71"/>
<polygon fill="midnightblue" stroke="midnightblue" points="80.3,-303.92 90.71,-305.89 83.8,-297.86 80.3,-303.92"/>
</g>
<!-- Node11 -->
<g id="node11" class="node">
<title>Node11</title>
<g id="a_node11"><a xlink:href="../../de/d72/geometric__dist_8cpp.html#a42df31ad2e41741e2b8ac4c3d1e900a0" target="_top" xlink:title="Tests the sampling method of the geometric distribution.">
<polygon fill="white" stroke="black" points="97,-153.5 97,-172.5 167,-172.5 167,-153.5 97,-153.5"/>
<text text-anchor="middle" x="132" y="-160.5" font-family="Helvetica,sans-Serif" font-size="10.00">sample_test</text>
</a>
</g>
</g>
<!-- Node1&#45;&gt;Node11 -->
<g id="edge12" class="edge">
<title>Node1&#45;&gt;Node11</title>
<path fill="none" stroke="midnightblue" d="M33.28,-195.72C48.57,-190.6 72.34,-182.64 92.61,-175.85"/>
<polygon fill="midnightblue" stroke="midnightblue" points="93.86,-179.13 102.23,-172.63 91.64,-172.49 93.86,-179.13"/>
</g>
<!-- Node14 -->
<g id="node14" class="node">
<title>Node14</title>
<g id="a_node14"><a xlink:href="../../dc/d97/classprobability_1_1geometric__distribution.html#af466b4e51c24c3d71ac11d1a957411d4" target="_top" xlink:title="The variance of a geometrically distributed random variable X.">
<polygon fill="white" stroke="black" points="247,-49 247,-79 361,-79 361,-49 247,-49"/>
<text text-anchor="start" x="255" y="-67" font-family="Helvetica,sans-Serif" font-size="10.00">probability::geometric</text>
<text text-anchor="middle" x="304" y="-56" font-family="Helvetica,sans-Serif" font-size="10.00">_distribution::variance</text>
</a>
</g>
</g>
<!-- Node1&#45;&gt;Node14 -->
<g id="edge22" class="edge">
<title>Node1&#45;&gt;Node14</title>
<path fill="none" stroke="midnightblue" d="M19.01,-191.34C22.94,-169.86 35.56,-118.12 69,-94 117.17,-59.26 185.85,-54.25 236.35,-56.44"/>
<polygon fill="midnightblue" stroke="midnightblue" points="236.34,-59.94 246.51,-56.98 236.72,-52.95 236.34,-59.94"/>
</g>
<!-- Node15 -->
<g id="node15" class="node">
<title>Node15</title>
<g id="a_node15"><a xlink:href="../../dc/d97/classprobability_1_1geometric__distribution.html#a391bfed7957656bd294f53928a3bdbbb" target="_top" xlink:title="The standard deviation of a geometrically distributed random variable X.">
<polygon fill="white" stroke="black" points="74.5,-0.5 74.5,-41.5 189.5,-41.5 189.5,-0.5 74.5,-0.5"/>
<text text-anchor="start" x="82.5" y="-29.5" font-family="Helvetica,sans-Serif" font-size="10.00">probability::geometric</text>
<text text-anchor="start" x="82.5" y="-18.5" font-family="Helvetica,sans-Serif" font-size="10.00">_distribution::standard</text>
<text text-anchor="middle" x="132" y="-7.5" font-family="Helvetica,sans-Serif" font-size="10.00">_deviation</text>
</a>
</g>
</g>
<!-- Node1&#45;&gt;Node15 -->
<g id="edge19" class="edge">
<title>Node1&#45;&gt;Node15</title>
<path fill="none" stroke="midnightblue" d="M18.57,-191.39C21.82,-166.35 33.59,-98.12 69,-56 71.45,-53.08 74.21,-50.36 77.17,-47.83"/>
<polygon fill="midnightblue" stroke="midnightblue" points="79.55,-50.42 85.38,-41.58 75.31,-44.85 79.55,-50.42"/>
</g>
<!-- Node3 -->
<g id="node3" class="node">
<title>Node3</title>
<g id="a_node3"><a target="_blank" xlink:href="http://en.cppreference.com/w/cpp/numeric/math/pow.html#" xlink:title=" ">
<polygon fill="white" stroke="black" points="448,-327.5 448,-346.5 502,-346.5 502,-327.5 448,-327.5"/>
<text text-anchor="middle" x="475" y="-334.5" font-family="Helvetica,sans-Serif" font-size="10.00">std::pow</text>
</a>
</g>
</g>
<!-- Node2&#45;&gt;Node3 -->
<g id="edge2" class="edge">
<title>Node2&#45;&gt;Node3</title>
<path fill="none" stroke="midnightblue" d="M366.01,-309.52C390.23,-315.68 417.23,-322.56 438.18,-327.89"/>
<polygon fill="midnightblue" stroke="midnightblue" points="437.39,-331.3 447.94,-330.37 439.11,-324.51 437.39,-331.3"/>
</g>
<!-- Node7 -->
<g id="node7" class="node">
<title>Node7</title>
<g id="a_node7"><a target="_blank" xlink:href="http://en.cppreference.com/w/cpp/numeric/math/log.html#" xlink:title=" ">
<polygon fill="white" stroke="black" points="573,-98.5 573,-117.5 622,-117.5 622,-98.5 573,-98.5"/>
<text text-anchor="middle" x="597.5" y="-105.5" font-family="Helvetica,sans-Serif" font-size="10.00">std::log</text>
</a>
</g>
</g>
<!-- Node6&#45;&gt;Node7 -->
<g id="edge6" class="edge">
<title>Node6&#45;&gt;Node7</title>
<path fill="none" stroke="midnightblue" d="M537.31,-108C546.02,-108 554.71,-108 562.63,-108"/>
<polygon fill="midnightblue" stroke="midnightblue" points="562.9,-111.5 572.9,-108 562.9,-104.5 562.9,-111.5"/>
</g>
<!-- Node8&#45;&gt;Node3 -->
<g id="edge8" class="edge">
<title>Node8&#45;&gt;Node3</title>
<path fill="none" stroke="midnightblue" d="M193.01,-377.18C242.62,-375.76 314.75,-371.97 377,-362 397.57,-358.7 420.14,-353.02 438.32,-347.9"/>
<polygon fill="midnightblue" stroke="midnightblue" points="439.29,-351.26 447.93,-345.13 437.35,-344.54 439.29,-351.26"/>
</g>
<!-- Node9&#45;&gt;Node2 -->
<g id="edge10" class="edge">
<title>Node9&#45;&gt;Node2</title>
<path fill="none" stroke="midnightblue" d="M195.34,-311.1C207.18,-309.22 219.66,-307.24 231.76,-305.32"/>
<polygon fill="midnightblue" stroke="midnightblue" points="232.48,-308.74 241.81,-303.72 231.38,-301.83 232.48,-308.74"/>
</g>
<!-- Node10 -->
<g id="node10" class="node">
<title>Node10</title>
<g id="a_node10"><a target="_blank" xlink:href="http://en.cppreference.com/w/cpp/types/numeric_limits/max.html#" xlink:title=" ">
<polygon fill="white" stroke="black" points="242,-333.5 242,-352.5 366,-352.5 366,-333.5 242,-333.5"/>
<text text-anchor="middle" x="304" y="-340.5" font-family="Helvetica,sans-Serif" font-size="10.00">std::numeric_limits::max</text>
</a>
</g>
</g>
<!-- Node9&#45;&gt;Node10 -->
<g id="edge11" class="edge">
<title>Node9&#45;&gt;Node10</title>
<path fill="none" stroke="midnightblue" d="M195.34,-329.07C207.18,-330.6 219.66,-332.21 231.76,-333.78"/>
<polygon fill="midnightblue" stroke="midnightblue" points="231.44,-337.27 241.81,-335.08 232.34,-330.33 231.44,-337.27"/>
</g>
<!-- Node11&#45;&gt;Node4 -->
<g id="edge16" class="edge">
<title>Node11&#45;&gt;Node4</title>
<path fill="none" stroke="midnightblue" d="M145.27,-172.71C163.15,-186.42 197.86,-211.41 231,-226 242.26,-230.96 255.09,-234.85 266.77,-237.79"/>
<polygon fill="midnightblue" stroke="midnightblue" points="266.14,-241.24 276.68,-240.13 267.75,-234.43 266.14,-241.24"/>
</g>
<!-- Node11&#45;&gt;Node5 -->
<g id="edge17" class="edge">
<title>Node11&#45;&gt;Node5</title>
<path fill="none" stroke="midnightblue" d="M167.4,-170.69C184.24,-174.45 205.25,-179.15 225.67,-183.71"/>
<polygon fill="midnightblue" stroke="midnightblue" points="225.1,-187.17 235.62,-185.94 226.63,-180.34 225.1,-187.17"/>
</g>
<!-- Node12 -->
<g id="node12" class="node">
<title>Node12</title>
<g id="a_node12"><a xlink:href="../../dc/d97/classprobability_1_1geometric__distribution.html#a8a3ce0b03a692250c1a314eb85110316" target="_top" xlink:title="Generates a (discrete) sample according to the geometrical distribution.">
<polygon fill="white" stroke="black" points="236.5,-137 236.5,-167 371.5,-167 371.5,-137 236.5,-137"/>
<text text-anchor="start" x="244.5" y="-155" font-family="Helvetica,sans-Serif" font-size="10.00">probability::geometric</text>
<text text-anchor="middle" x="304" y="-144" font-family="Helvetica,sans-Serif" font-size="10.00">_distribution::draw_sample</text>
</a>
</g>
</g>
<!-- Node11&#45;&gt;Node12 -->
<g id="edge13" class="edge">
<title>Node11&#45;&gt;Node12</title>
<path fill="none" stroke="midnightblue" d="M167.4,-160.77C184.41,-159.67 205.67,-158.3 226.27,-156.96"/>
<polygon fill="midnightblue" stroke="midnightblue" points="226.56,-160.45 236.31,-156.31 226.11,-153.47 226.56,-160.45"/>
</g>
<!-- Node11&#45;&gt;Node14 -->
<g id="edge18" class="edge">
<title>Node11&#45;&gt;Node14</title>
<path fill="none" stroke="midnightblue" d="M149.61,-153.33C177.03,-137.36 232.32,-105.16 268.49,-84.1"/>
<polygon fill="midnightblue" stroke="midnightblue" points="270.36,-87.06 277.24,-79 266.84,-81.01 270.36,-87.06"/>
</g>
<!-- Node12&#45;&gt;Node6 -->
<g id="edge15" class="edge">
<title>Node12&#45;&gt;Node6</title>
<path fill="none" stroke="midnightblue" d="M362.69,-136.98C375.69,-133.6 389.64,-129.96 403.11,-126.46"/>
<polygon fill="midnightblue" stroke="midnightblue" points="404.03,-129.83 412.82,-123.93 402.26,-123.06 404.03,-129.83"/>
</g>
<!-- Node13 -->
<g id="node13" class="node">
<title>Node13</title>
<g id="a_node13"><a xlink:href="../../d4/ded/namespaceprobability.html#a29f509e53d558dd9cb318048f2454d4b" target="_top" xlink:title="Returns a random number between [0,1].">
<polygon fill="white" stroke="black" points="421.5,-148 421.5,-178 528.5,-178 528.5,-148 421.5,-148"/>
<text text-anchor="start" x="429.5" y="-166" font-family="Helvetica,sans-Serif" font-size="10.00">probability::generate</text>
<text text-anchor="middle" x="475" y="-155" font-family="Helvetica,sans-Serif" font-size="10.00">_uniform</text>
</a>
</g>
</g>
<!-- Node12&#45;&gt;Node13 -->
<g id="edge14" class="edge">
<title>Node12&#45;&gt;Node13</title>
<path fill="none" stroke="midnightblue" d="M371.79,-156.35C384.82,-157.2 398.44,-158.08 411.34,-158.92"/>
<polygon fill="midnightblue" stroke="midnightblue" points="411.29,-162.43 421.49,-159.58 411.74,-155.44 411.29,-162.43"/>
</g>
<!-- Node15&#45;&gt;Node14 -->
<g id="edge21" class="edge">
<title>Node15&#45;&gt;Node14</title>
<path fill="none" stroke="midnightblue" d="M189.61,-35.32C204.74,-39.15 221.23,-43.32 236.83,-47.26"/>
<polygon fill="midnightblue" stroke="midnightblue" points="236.38,-50.76 246.93,-49.82 238.09,-43.97 236.38,-50.76"/>
</g>
<!-- Node16 -->
<g id="node16" class="node">
<title>Node16</title>
<g id="a_node16"><a target="_blank" xlink:href="http://en.cppreference.com/w/cpp/numeric/math/sqrt.html#" xlink:title=" ">
<polygon fill="white" stroke="black" points="278,-10.5 278,-29.5 330,-29.5 330,-10.5 278,-10.5"/>
<text text-anchor="middle" x="304" y="-17.5" font-family="Helvetica,sans-Serif" font-size="10.00">std::sqrt</text>
</a>
</g>
</g>
<!-- Node15&#45;&gt;Node16 -->
<g id="edge20" class="edge">
<title>Node15&#45;&gt;Node16</title>
<path fill="none" stroke="midnightblue" d="M189.61,-20.67C215.46,-20.51 245.26,-20.34 267.83,-20.21"/>
<polygon fill="midnightblue" stroke="midnightblue" points="267.98,-23.71 277.96,-20.15 267.94,-16.71 267.98,-23.71"/>
</g>
</g>
</svg>
