<?xml version="1.0" encoding="UTF-8" standalone="no"?>
<!DOCTYPE svg PUBLIC "-//W3C//DTD SVG 1.1//EN"
 "http://www.w3.org/Graphics/SVG/1.1/DTD/svg11.dtd">
<!-- Generated by graphviz version 2.49.1 (20210923.0004)
 -->
<!-- Title: test Pages: 1 -->
<!--zoomable 447 -->
<svg id="main" version="1.1" xmlns="http://www.w3.org/2000/svg" xmlns:xlink="http://www.w3.org/1999/xlink" xml:space="preserve" onload="init(evt)">
<style type="text/css"><![CDATA[
.edge:hover path { stroke: red; }
.edge:hover polygon { stroke: red; fill: red; }
]]></style>
<script type="text/javascript"><![CDATA[
var edges = document.getElementsByTagName('g');
if (edges && edges.length) {
  for (var i=0;i<edges.length;i++) {
    if (edges[i].id.substr(0,4)=='edge') {
      edges[i].setAttribute('class','edge');
    }
  }
}
]]></script>
        <defs>
                <circle id="rim" cx="0" cy="0" r="7"/>
                <circle id="rim2" cx="0" cy="0" r="3.5"/>
                <g id="zoomPlus">
                        <use xlink:href="#rim" fill="#404040">
                                <set attributeName="fill" to="#808080" begin="zoomplus.mouseover" end="zoomplus.mouseout"/>
                        </use>
                        <path d="M-4,0h8M0,-4v8" fill="none" stroke="white" stroke-width="1.5" pointer-events="none"/>
                </g>
                <g id="zoomMin">
                        <use xlink:href="#rim" fill="#404040">
                                <set attributeName="fill" to="#808080" begin="zoomminus.mouseover" end="zoomminus.mouseout"/>
                        </use>
                        <path d="M-4,0h8" fill="none" stroke="white" stroke-width="1.5" pointer-events="none"/>
                </g>
                <g id="dirArrow">
                        <path fill="none" stroke="white" stroke-width="1.5" d="M0,-3.0v7 M-2.5,-0.5L0,-3.0L2.5,-0.5"/>
                </g>
               <g id="resetDef">
                       <use xlink:href="#rim2" fill="#404040">
                               <set attributeName="fill" to="#808080" begin="reset.mouseover" end="reset.mouseout"/>
                       </use>
               </g>
        </defs>

<script type="text/javascript">
var viewWidth = 630;
var viewHeight = 447;
var sectionId = 'dynsection-3';
</script>
<script xlink:href="../../svgpan.js"/>
<svg id="graph" class="graph">
<g id="viewport">
<title>test</title>
<polygon fill="white" stroke="transparent" points="-4,4 -4,-443 626,-443 626,4 -4,4"/>
<!-- Node1 -->
<g id="node1" class="node">
<title>Node1</title>
<g id="a_node1"><a xlink:title="Self&#45;test implementation.">
<polygon fill="#bfbfbf" stroke="black" points="0,-225.5 0,-244.5 33,-244.5 33,-225.5 0,-225.5"/>
<text text-anchor="middle" x="16.5" y="-232.5" font-family="Helvetica,sans-Serif" font-size="10.00">test</text>
</a>
</g>
</g>
<!-- Node2 -->
<g id="node2" class="node">
<title>Node2</title>
<g id="a_node2"><a xlink:href="../../dc/d97/classprobability_1_1geometric__distribution.html#a7362f7161d86cd025888e55158033088" target="_top" xlink:title="The cumulative distribution function.">
<polygon fill="white" stroke="black" points="242,-397.5 242,-438.5 366,-438.5 366,-397.5 242,-397.5"/>
<text text-anchor="start" x="250" y="-426.5" font-family="Helvetica,sans-Serif" font-size="10.00">probability::geometric</text>
<text text-anchor="start" x="250" y="-415.5" font-family="Helvetica,sans-Serif" font-size="10.00">_distribution::cumulative</text>
<text text-anchor="middle" x="304" y="-404.5" font-family="Helvetica,sans-Serif" font-size="10.00">_distribution</text>
</a>
</g>
</g>
<!-- Node1&#45;&gt;Node2 -->
<g id="edge1" class="edge">
<title>Node1&#45;&gt;Node2</title>
<path fill="none" stroke="midnightblue" d="M17.07,-244.56C16.35,-273.74 18.58,-362.06 69,-402 114.16,-437.78 180.89,-438.89 231.55,-432.73"/>
<polygon fill="midnightblue" stroke="midnightblue" points="232.33,-436.16 241.78,-431.37 231.4,-429.22 232.33,-436.16"/>
</g>
<!-- Node4 -->
<g id="node4" class="node">
<title>Node4</title>
<g id="a_node4"><a target="_blank" xlink:href="http://en.cppreference.com/w/cpp/io/manip/endl.html#" xlink:title=" ">
<polygon fill="white" stroke="black" points="277,-225.5 277,-244.5 331,-244.5 331,-225.5 277,-225.5"/>
<text text-anchor="middle" x="304" y="-232.5" font-family="Helvetica,sans-Serif" font-size="10.00">std::endl</text>
</a>
</g>
</g>
<!-- Node1&#45;&gt;Node4 -->
<g id="edge3" class="edge">
<title>Node1&#45;&gt;Node4</title>
<path fill="none" stroke="midnightblue" d="M33.26,-235C77.46,-235 203.5,-235 266.38,-235"/>
<polygon fill="midnightblue" stroke="midnightblue" points="266.64,-238.5 276.64,-235 266.64,-231.5 266.64,-238.5"/>
</g>
<!-- Node5 -->
<g id="node5" class="node">
<title>Node5</title>
<g id="a_node5"><a xlink:href="../../dc/d97/classprobability_1_1geometric__distribution.html#af098d2ba2ae150ef158790b34d20183c" target="_top" xlink:title="The expected value of a geometrically distributed random variable X.">
<polygon fill="white" stroke="black" points="231,-176 231,-206 377,-206 377,-176 231,-176"/>
<text text-anchor="start" x="239" y="-194" font-family="Helvetica,sans-Serif" font-size="10.00">probability::geometric</text>
<text text-anchor="middle" x="304" y="-183" font-family="Helvetica,sans-Serif" font-size="10.00">_distribution::expected_value</text>
</a>
</g>
</g>
<!-- Node1&#45;&gt;Node5 -->
<g id="edge4" class="edge">
<title>Node1&#45;&gt;Node5</title>
<path fill="none" stroke="midnightblue" d="M33.26,-232.57C68.39,-227.16 155.24,-213.77 220.97,-203.64"/>
<polygon fill="midnightblue" stroke="midnightblue" points="221.57,-207.09 230.92,-202.11 220.5,-200.17 221.57,-207.09"/>
</g>
<!-- Node6 -->
<g id="node6" class="node">
<title>Node6</title>
<g id="a_node6"><a xlink:href="../../dc/d97/classprobability_1_1geometric__distribution.html#afe8e3cec3f9ec89b697e674d1a4453cd" target="_top" xlink:title="The inverse cumulative distribution function.">
<polygon fill="white" stroke="black" points="413,-214.5 413,-255.5 537,-255.5 537,-214.5 413,-214.5"/>
<text text-anchor="start" x="421" y="-243.5" font-family="Helvetica,sans-Serif" font-size="10.00">probability::geometric</text>
<text text-anchor="start" x="421" y="-232.5" font-family="Helvetica,sans-Serif" font-size="10.00">_distribution::inverse</text>
<text text-anchor="middle" x="475" y="-221.5" font-family="Helvetica,sans-Serif" font-size="10.00">_cumulative_distribution</text>
</a>
</g>
</g>
<!-- Node1&#45;&gt;Node6 -->
<g id="edge5" class="edge">
<title>Node1&#45;&gt;Node6</title>
<path fill="none" stroke="midnightblue" d="M33.07,-240.26C43.19,-243.42 56.72,-247.17 69,-249 204.41,-269.21 240.73,-267.22 377,-254 385.41,-253.18 394.17,-251.98 402.84,-250.57"/>
<polygon fill="midnightblue" stroke="midnightblue" points="403.69,-253.97 412.95,-248.82 402.5,-247.07 403.69,-253.97"/>
</g>
<!-- Node8 -->
<g id="node8" class="node">
<title>Node8</title>
<g id="a_node8"><a xlink:href="../../dc/d97/classprobability_1_1geometric__distribution.html#ae8bc1cc59c743547b5af20308e8610d2" target="_top" xlink:title="The probability density function.">
<polygon fill="white" stroke="black" points="71,-301.5 71,-342.5 193,-342.5 193,-301.5 71,-301.5"/>
<text text-anchor="start" x="79" y="-330.5" font-family="Helvetica,sans-Serif" font-size="10.00">probability::geometric</text>
<text text-anchor="start" x="79" y="-319.5" font-family="Helvetica,sans-Serif" font-size="10.00">_distribution::probability</text>
<text text-anchor="middle" x="132" y="-308.5" font-family="Helvetica,sans-Serif" font-size="10.00">_density</text>
</a>
</g>
</g>
<!-- Node1&#45;&gt;Node8 -->
<g id="edge7" class="edge">
<title>Node1&#45;&gt;Node8</title>
<path fill="none" stroke="midnightblue" d="M25.56,-244.62C35.16,-255.7 52.03,-274.05 69,-287 73.07,-290.11 77.45,-293.13 81.93,-296"/>
<polygon fill="midnightblue" stroke="midnightblue" points="80.26,-299.09 90.61,-301.35 83.93,-293.13 80.26,-299.09"/>
</g>
<!-- Node9 -->
<g id="node9" class="node">
<title>Node9</title>
<g id="a_node9"><a xlink:href="../../dc/d97/classprobability_1_1geometric__distribution.html#a1af016f6437abfd09cb4099ea539e31b" target="_top" xlink:title="This function computes the probability to have success in a given range of tries.">
<polygon fill="white" stroke="black" points="69,-362 69,-392 195,-392 195,-362 69,-362"/>
<text text-anchor="start" x="77" y="-380" font-family="Helvetica,sans-Serif" font-size="10.00">probability::geometric</text>
<text text-anchor="middle" x="132" y="-369" font-family="Helvetica,sans-Serif" font-size="10.00">_distribution::range_tries</text>
</a>
</g>
</g>
<!-- Node1&#45;&gt;Node9 -->
<g id="edge9" class="edge">
<title>Node1&#45;&gt;Node9</title>
<path fill="none" stroke="midnightblue" d="M19.17,-244.58C23.49,-266.53 36.97,-320.96 69,-352 70.63,-353.58 72.36,-355.06 74.19,-356.45"/>
<polygon fill="midnightblue" stroke="midnightblue" points="72.36,-359.43 82.64,-361.99 76.2,-353.58 72.36,-359.43"/>
</g>
<!-- Node11 -->
<g id="node11" class="node">
<title>Node11</title>
<g id="a_node11"><a xlink:href="../../de/d72/geometric__dist_8cpp.html#a42df31ad2e41741e2b8ac4c3d1e900a0" target="_top" xlink:title="Tests the sampling method of the geometric distribution.">
<polygon fill="white" stroke="black" points="97,-137.5 97,-156.5 167,-156.5 167,-137.5 97,-137.5"/>
<text text-anchor="middle" x="132" y="-144.5" font-family="Helvetica,sans-Serif" font-size="10.00">sample_test</text>
</a>
</g>
</g>
<!-- Node1&#45;&gt;Node11 -->
<g id="edge12" class="edge">
<title>Node1&#45;&gt;Node11</title>
<path fill="none" stroke="midnightblue" d="M25.05,-225.13C34.43,-213.34 51.35,-193.52 69,-180 78.41,-172.79 89.62,-166.3 99.9,-161.01"/>
<polygon fill="midnightblue" stroke="midnightblue" points="101.59,-164.09 109,-156.52 98.49,-157.81 101.59,-164.09"/>
</g>
<!-- Node15 -->
<g id="node15" class="node">
<title>Node15</title>
<g id="a_node15"><a xlink:href="../../dc/d97/classprobability_1_1geometric__distribution.html#af466b4e51c24c3d71ac11d1a957411d4" target="_top" xlink:title="The variance of a geometrically distributed random variable X.">
<polygon fill="white" stroke="black" points="247,-39 247,-69 361,-69 361,-39 247,-39"/>
<text text-anchor="start" x="255" y="-57" font-family="Helvetica,sans-Serif" font-size="10.00">probability::geometric</text>
<text text-anchor="middle" x="304" y="-46" font-family="Helvetica,sans-Serif" font-size="10.00">_distribution::variance</text>
</a>
</g>
</g>
<!-- Node1&#45;&gt;Node15 -->
<g id="edge23" class="edge">
<title>Node1&#45;&gt;Node15</title>
<path fill="none" stroke="midnightblue" d="M19.41,-225.45C24.08,-204.62 38,-154.87 69,-128 75.79,-122.11 175.25,-91.85 242.3,-71.89"/>
<polygon fill="midnightblue" stroke="midnightblue" points="243.35,-75.23 251.94,-69.03 241.35,-68.52 243.35,-75.23"/>
</g>
<!-- Node16 -->
<g id="node16" class="node">
<title>Node16</title>
<g id="a_node16"><a xlink:href="../../dc/d97/classprobability_1_1geometric__distribution.html#a391bfed7957656bd294f53928a3bdbbb" target="_top" xlink:title="The standard deviation of a geometrically distributed random variable X.">
<polygon fill="white" stroke="black" points="74.5,-33.5 74.5,-74.5 189.5,-74.5 189.5,-33.5 74.5,-33.5"/>
<text text-anchor="start" x="82.5" y="-62.5" font-family="Helvetica,sans-Serif" font-size="10.00">probability::geometric</text>
<text text-anchor="start" x="82.5" y="-51.5" font-family="Helvetica,sans-Serif" font-size="10.00">_distribution::standard</text>
<text text-anchor="middle" x="132" y="-40.5" font-family="Helvetica,sans-Serif" font-size="10.00">_deviation</text>
</a>
</g>
</g>
<!-- Node1&#45;&gt;Node16 -->
<g id="edge20" class="edge">
<title>Node1&#45;&gt;Node16</title>
<path fill="none" stroke="midnightblue" d="M18.95,-225.15C22.98,-200.73 36.21,-136.43 69,-95 73.05,-89.89 77.91,-85.19 83.11,-80.96"/>
<polygon fill="midnightblue" stroke="midnightblue" points="85.59,-83.47 91.5,-74.68 81.4,-77.87 85.59,-83.47"/>
</g>
<!-- Node3 -->
<g id="node3" class="node">
<title>Node3</title>
<g id="a_node3"><a target="_blank" xlink:href="http://en.cppreference.com/w/cpp/numeric/math/pow.html#" xlink:title=" ">
<polygon fill="white" stroke="black" points="448,-363.5 448,-382.5 502,-382.5 502,-363.5 448,-363.5"/>
<text text-anchor="middle" x="475" y="-370.5" font-family="Helvetica,sans-Serif" font-size="10.00">std::pow</text>
</a>
</g>
</g>
<!-- Node2&#45;&gt;Node3 -->
<g id="edge2" class="edge">
<title>Node2&#45;&gt;Node3</title>
<path fill="none" stroke="midnightblue" d="M366.01,-401.75C390.23,-395.31 417.23,-388.12 438.18,-382.54"/>
<polygon fill="midnightblue" stroke="midnightblue" points="439.18,-385.89 447.94,-379.94 437.38,-379.13 439.18,-385.89"/>
</g>
<!-- Node7 -->
<g id="node7" class="node">
<title>Node7</title>
<g id="a_node7"><a target="_blank" xlink:href="http://en.cppreference.com/w/cpp/numeric/math/log.html#" xlink:title=" ">
<polygon fill="white" stroke="black" points="573,-225.5 573,-244.5 622,-244.5 622,-225.5 573,-225.5"/>
<text text-anchor="middle" x="597.5" y="-232.5" font-family="Helvetica,sans-Serif" font-size="10.00">std::log</text>
</a>
</g>
</g>
<!-- Node6&#45;&gt;Node7 -->
<g id="edge6" class="edge">
<title>Node6&#45;&gt;Node7</title>
<path fill="none" stroke="midnightblue" d="M537.31,-235C546.02,-235 554.71,-235 562.63,-235"/>
<polygon fill="midnightblue" stroke="midnightblue" points="562.9,-238.5 572.9,-235 562.9,-231.5 562.9,-238.5"/>
</g>
<!-- Node8&#45;&gt;Node3 -->
<g id="edge8" class="edge">
<title>Node8&#45;&gt;Node3</title>
<path fill="none" stroke="midnightblue" d="M193.45,-326.93C243,-331.45 314.84,-339.1 377,-350 397.33,-353.56 419.77,-358.8 437.94,-363.37"/>
<polygon fill="midnightblue" stroke="midnightblue" points="437.27,-366.82 447.83,-365.9 439.01,-360.03 437.27,-366.82"/>
</g>
<!-- Node9&#45;&gt;Node2 -->
<g id="edge10" class="edge">
<title>Node9&#45;&gt;Node2</title>
<path fill="none" stroke="midnightblue" d="M195.34,-392.03C207.18,-394.89 219.66,-397.9 231.76,-400.82"/>
<polygon fill="midnightblue" stroke="midnightblue" points="231.26,-404.3 241.81,-403.24 232.91,-397.49 231.26,-404.3"/>
</g>
<!-- Node10 -->
<g id="node10" class="node">
<title>Node10</title>
<g id="a_node10"><a target="_blank" xlink:href="http://en.cppreference.com/w/cpp/types/numeric_limits/max.html#" xlink:title=" ">
<polygon fill="white" stroke="black" points="242,-359.5 242,-378.5 366,-378.5 366,-359.5 242,-359.5"/>
<text text-anchor="middle" x="304" y="-366.5" font-family="Helvetica,sans-Serif" font-size="10.00">std::numeric_limits::max</text>
</a>
</g>
</g>
<!-- Node9&#45;&gt;Node10 -->
<g id="edge11" class="edge">
<title>Node9&#45;&gt;Node10</title>
<path fill="none" stroke="midnightblue" d="M195.34,-374.07C207.18,-373.51 219.66,-372.92 231.76,-372.35"/>
<polygon fill="midnightblue" stroke="midnightblue" points="231.98,-375.85 241.81,-371.88 231.65,-368.85 231.98,-375.85"/>
</g>
<!-- Node11&#45;&gt;Node4 -->
<g id="edge16" class="edge">
<title>Node11&#45;&gt;Node4</title>
<path fill="none" stroke="midnightblue" d="M143.94,-156.71C161.23,-171.57 196.48,-199.93 231,-216 242.24,-221.23 255.16,-225.21 266.93,-228.14"/>
<polygon fill="midnightblue" stroke="midnightblue" points="266.37,-231.6 276.9,-230.45 267.95,-224.79 266.37,-231.6"/>
</g>
<!-- Node11&#45;&gt;Node5 -->
<g id="edge17" class="edge">
<title>Node11&#45;&gt;Node5</title>
<path fill="none" stroke="midnightblue" d="M167.4,-155.9C186.84,-160.94 211.83,-167.4 235.06,-173.41"/>
<polygon fill="midnightblue" stroke="midnightblue" points="234.32,-176.84 244.88,-175.96 236.07,-170.06 234.32,-176.84"/>
</g>
<!-- Node12 -->
<g id="node12" class="node">
<title>Node12</title>
<g id="a_node12"><a xlink:href="../../dc/d97/classprobability_1_1geometric__distribution.html#a8a3ce0b03a692250c1a314eb85110316" target="_top" xlink:title="Generates a (discrete) sample according to the geometrical distribution.">
<polygon fill="white" stroke="black" points="236.5,-127 236.5,-157 371.5,-157 371.5,-127 236.5,-127"/>
<text text-anchor="start" x="244.5" y="-145" font-family="Helvetica,sans-Serif" font-size="10.00">probability::geometric</text>
<text text-anchor="middle" x="304" y="-134" font-family="Helvetica,sans-Serif" font-size="10.00">_distribution::draw_sample</text>
</a>
</g>
</g>
<!-- Node11&#45;&gt;Node12 -->
<g id="edge13" class="edge">
<title>Node11&#45;&gt;Node12</title>
<path fill="none" stroke="midnightblue" d="M167.4,-145.99C184.41,-145.49 205.67,-144.86 226.27,-144.26"/>
<polygon fill="midnightblue" stroke="midnightblue" points="226.42,-147.75 236.31,-143.96 226.22,-140.76 226.42,-147.75"/>
</g>
<!-- Node14 -->
<g id="node14" class="node">
<title>Node14</title>
<g id="a_node14"><a target="_blank" xlink:href="http://en.cppreference.com/w/cpp/container/vector/resize.html#" xlink:title=" ">
<polygon fill="white" stroke="black" points="256.5,-88.5 256.5,-107.5 351.5,-107.5 351.5,-88.5 256.5,-88.5"/>
<text text-anchor="middle" x="304" y="-95.5" font-family="Helvetica,sans-Serif" font-size="10.00">std::vector::resize</text>
</a>
</g>
</g>
<!-- Node11&#45;&gt;Node14 -->
<g id="edge18" class="edge">
<title>Node11&#45;&gt;Node14</title>
<path fill="none" stroke="midnightblue" d="M164.74,-137.46C183.9,-131.74 208.83,-124.36 231,-118 239.88,-115.45 249.4,-112.77 258.5,-110.23"/>
<polygon fill="midnightblue" stroke="midnightblue" points="259.48,-113.6 268.18,-107.55 257.6,-106.85 259.48,-113.6"/>
</g>
<!-- Node11&#45;&gt;Node15 -->
<g id="edge19" class="edge">
<title>Node11&#45;&gt;Node15</title>
<path fill="none" stroke="midnightblue" d="M167.11,-137.38C176.65,-133.77 186.68,-129.03 195,-123 215.46,-108.17 210.28,-93.47 231,-79 233.71,-77.11 236.58,-75.34 239.55,-73.7"/>
<polygon fill="midnightblue" stroke="midnightblue" points="241.31,-76.74 248.7,-69.15 238.19,-70.47 241.31,-76.74"/>
</g>
<!-- Node12&#45;&gt;Node6 -->
<g id="edge15" class="edge">
<title>Node12&#45;&gt;Node6</title>
<path fill="none" stroke="midnightblue" d="M354.18,-157.02C361.96,-159.98 369.81,-163.32 377,-167 399.34,-178.43 422.43,-194.41 440.47,-208.01"/>
<polygon fill="midnightblue" stroke="midnightblue" points="438.83,-211.16 448.89,-214.47 443.08,-205.61 438.83,-211.16"/>
</g>
<!-- Node13 -->
<g id="node13" class="node">
<title>Node13</title>
<g id="a_node13"><a xlink:href="../../d4/ded/namespaceprobability.html#a29f509e53d558dd9cb318048f2454d4b" target="_top" xlink:title="Returns a random number between [0,1].">
<polygon fill="white" stroke="black" points="421.5,-127 421.5,-157 528.5,-157 528.5,-127 421.5,-127"/>
<text text-anchor="start" x="429.5" y="-145" font-family="Helvetica,sans-Serif" font-size="10.00">probability::generate</text>
<text text-anchor="middle" x="475" y="-134" font-family="Helvetica,sans-Serif" font-size="10.00">_uniform</text>
</a>
</g>
</g>
<!-- Node12&#45;&gt;Node13 -->
<g id="edge14" class="edge">
<title>Node12&#45;&gt;Node13</title>
<path fill="none" stroke="midnightblue" d="M371.79,-142C384.82,-142 398.44,-142 411.34,-142"/>
<polygon fill="midnightblue" stroke="midnightblue" points="411.49,-145.5 421.49,-142 411.49,-138.5 411.49,-145.5"/>
</g>
<!-- Node16&#45;&gt;Node15 -->
<g id="edge22" class="edge">
<title>Node16&#45;&gt;Node15</title>
<path fill="none" stroke="midnightblue" d="M189.61,-54C204.74,-54 221.23,-54 236.83,-54"/>
<polygon fill="midnightblue" stroke="midnightblue" points="236.93,-57.5 246.93,-54 236.93,-50.5 236.93,-57.5"/>
</g>
<!-- Node17 -->
<g id="node17" class="node">
<title>Node17</title>
<g id="a_node17"><a target="_blank" xlink:href="http://en.cppreference.com/w/cpp/numeric/math/sqrt.html#" xlink:title=" ">
<polygon fill="white" stroke="black" points="278,-0.5 278,-19.5 330,-19.5 330,-0.5 278,-0.5"/>
<text text-anchor="middle" x="304" y="-7.5" font-family="Helvetica,sans-Serif" font-size="10.00">std::sqrt</text>
</a>
</g>
</g>
<!-- Node16&#45;&gt;Node17 -->
<g id="edge21" class="edge">
<title>Node16&#45;&gt;Node17</title>
<path fill="none" stroke="midnightblue" d="M189.61,-39.35C215.57,-32.63 245.53,-24.87 268.13,-19.02"/>
<polygon fill="midnightblue" stroke="midnightblue" points="269.15,-22.38 277.96,-16.48 267.4,-15.6 269.15,-22.38"/>
</g>
</g>
</svg>
        <g id="navigator" transform="translate(0 0)" fill="#404254">
                <rect fill="#f2f5e9" fill-opacity="0.5" stroke="#606060" stroke-width=".5" x="0" y="0" width="60" height="60"/>
                <use id="zoomplus" xlink:href="#zoomPlus" x="17" y="9" onmousedown="handleZoom(evt,'in')"/>
                <use id="zoomminus" xlink:href="#zoomMin" x="42" y="9" onmousedown="handleZoom(evt,'out')"/>
                <use id="reset" xlink:href="#resetDef" x="30" y="36" onmousedown="handleReset()"/>
                <g id="arrowUp" xlink:href="#dirArrow" transform="translate(30 24)" onmousedown="handlePan(0,-1)">
                  <use xlink:href="#rim" fill="#404040">
                        <set attributeName="fill" to="#808080" begin="arrowUp.mouseover" end="arrowUp.mouseout"/>
                  </use>
                  <path fill="none" stroke="white" stroke-width="1.5" d="M0,-3.0v7 M-2.5,-0.5L0,-3.0L2.5,-0.5"/>
                </g>
                <g id="arrowRight" xlink:href="#dirArrow" transform="rotate(90) translate(36 -43)" onmousedown="handlePan(1,0)">
                  <use xlink:href="#rim" fill="#404040">
                        <set attributeName="fill" to="#808080" begin="arrowRight.mouseover" end="arrowRight.mouseout"/>
                  </use>
                  <path fill="none" stroke="white" stroke-width="1.5" d="M0,-3.0v7 M-2.5,-0.5L0,-3.0L2.5,-0.5"/>
                </g>
                <g id="arrowDown" xlink:href="#dirArrow" transform="rotate(180) translate(-30 -48)" onmousedown="handlePan(0,1)">
                  <use xlink:href="#rim" fill="#404040">
                        <set attributeName="fill" to="#808080" begin="arrowDown.mouseover" end="arrowDown.mouseout"/>
                  </use>
                  <path fill="none" stroke="white" stroke-width="1.5" d="M0,-3.0v7 M-2.5,-0.5L0,-3.0L2.5,-0.5"/>
                </g>
                <g id="arrowLeft" xlink:href="#dirArrow" transform="rotate(270) translate(-36 17)" onmousedown="handlePan(-1,0)">
                  <use xlink:href="#rim" fill="#404040">
                        <set attributeName="fill" to="#808080" begin="arrowLeft.mouseover" end="arrowLeft.mouseout"/>
                  </use>
                  <path fill="none" stroke="white" stroke-width="1.5" d="M0,-3.0v7 M-2.5,-0.5L0,-3.0L2.5,-0.5"/>
                </g>
        </g>
        <svg viewBox="0 0 15 15" width="100%" height="30px" preserveAspectRatio="xMaxYMin meet">
         <g id="arrow_out" transform="scale(0.3 0.3)">
          <a xlink:href="geometric__dist_8cpp_aa8dca7b867074164d5f45b0f3851269d_cgraph_org.svg" target="_base">
           <rect id="button" ry="5" rx="5" y="6" x="6" height="38" width="38"
                fill="#f2f5e9" fill-opacity="0.5" stroke="#606060" stroke-width="1.0"/>
           <path id="arrow"
             d="M 11.500037,31.436501 C 11.940474,20.09759 22.043105,11.32322 32.158766,21.979434 L 37.068811,17.246167 C 37.068811,17.246167 37.088388,32 37.088388,32 L 22.160133,31.978069 C 22.160133,31.978069 26.997745,27.140456 26.997745,27.140456 C 18.528582,18.264221 13.291696,25.230495 11.500037,31.436501 z"
             style="fill:#404040;"/>
          </a>
         </g>
        </svg>
</svg>
