<?xml version="1.0" encoding="UTF-8" standalone="no"?>
<!DOCTYPE svg PUBLIC "-//W3C//DTD SVG 1.1//EN"
 "http://www.w3.org/Graphics/SVG/1.1/DTD/svg11.dtd">
<!-- Generated by graphviz version 2.49.1 (20210923.0004)
 -->
<!-- Title: main Pages: 1 -->
<!--zoomable 447 -->
<svg id="main" version="1.1" xmlns="http://www.w3.org/2000/svg" xmlns:xlink="http://www.w3.org/1999/xlink" xml:space="preserve" onload="init(evt)">
<style type="text/css"><![CDATA[
.edge:hover path { stroke: red; }
.edge:hover polygon { stroke: red; fill: red; }
]]></style>
<script type="text/javascript"><![CDATA[
var edges = document.getElementsByTagName('g');
if (edges && edges.length) {
  for (var i=0;i<edges.length;i++) {
    if (edges[i].id.substr(0,4)=='edge') {
      edges[i].setAttribute('class','edge');
    }
  }
}
]]></script>
        <defs>
                <circle id="rim" cx="0" cy="0" r="7"/>
                <circle id="rim2" cx="0" cy="0" r="3.5"/>
                <g id="zoomPlus">
                        <use xlink:href="#rim" fill="#404040">
                                <set attributeName="fill" to="#808080" begin="zoomplus.mouseover" end="zoomplus.mouseout"/>
                        </use>
                        <path d="M-4,0h8M0,-4v8" fill="none" stroke="white" stroke-width="1.5" pointer-events="none"/>
                </g>
                <g id="zoomMin">
                        <use xlink:href="#rim" fill="#404040">
                                <set attributeName="fill" to="#808080" begin="zoomminus.mouseover" end="zoomminus.mouseout"/>
                        </use>
                        <path d="M-4,0h8" fill="none" stroke="white" stroke-width="1.5" pointer-events="none"/>
                </g>
                <g id="dirArrow">
                        <path fill="none" stroke="white" stroke-width="1.5" d="M0,-3.0v7 M-2.5,-0.5L0,-3.0L2.5,-0.5"/>
                </g>
               <g id="resetDef">
                       <use xlink:href="#rim2" fill="#404040">
                               <set attributeName="fill" to="#808080" begin="reset.mouseover" end="reset.mouseout"/>
                       </use>
               </g>
        </defs>

<script type="text/javascript">
var viewWidth = 704;
var viewHeight = 447;
var sectionId = 'dynsection-1';
</script>
<script xlink:href="../../svgpan.js"/>
<svg id="graph" class="graph">
<g id="viewport">
<title>main</title>
<polygon fill="white" stroke="transparent" points="-4,4 -4,-443 700,-443 700,4 -4,4"/>
<!-- Node1 -->
<g id="node1" class="node">
<title>Node1</title>
<g id="a_node1"><a xlink:title="Main function.">
<polygon fill="#bfbfbf" stroke="black" points="0,-225.5 0,-244.5 38,-244.5 38,-225.5 0,-225.5"/>
<text text-anchor="middle" x="19" y="-232.5" font-family="Helvetica,sans-Serif" font-size="10.00">main</text>
</a>
</g>
</g>
<!-- Node2 -->
<g id="node2" class="node">
<title>Node2</title>
<g id="a_node2"><a xlink:href="../../de/d72/geometric__dist_8cpp.html#aa8dca7b867074164d5f45b0f3851269d" target="_top" xlink:title="Self&#45;test implementation.">
<polygon fill="white" stroke="black" points="74,-225.5 74,-244.5 107,-244.5 107,-225.5 74,-225.5"/>
<text text-anchor="middle" x="90.5" y="-232.5" font-family="Helvetica,sans-Serif" font-size="10.00">test</text>
</a>
</g>
</g>
<!-- Node1&#45;&gt;Node2 -->
<g id="edge1" class="edge">
<title>Node1&#45;&gt;Node2</title>
<path fill="none" stroke="midnightblue" d="M38.26,-235C46.07,-235 55.31,-235 63.79,-235"/>
<polygon fill="midnightblue" stroke="midnightblue" points="63.95,-238.5 73.95,-235 63.95,-231.5 63.95,-238.5"/>
</g>
<!-- Node3 -->
<g id="node3" class="node">
<title>Node3</title>
<g id="a_node3"><a xlink:href="../../dc/d97/classprobability_1_1geometric__distribution.html#a7362f7161d86cd025888e55158033088" target="_top" xlink:title="The cumulative distribution function.">
<polygon fill="white" stroke="black" points="316,-397.5 316,-438.5 440,-438.5 440,-397.5 316,-397.5"/>
<text text-anchor="start" x="324" y="-426.5" font-family="Helvetica,sans-Serif" font-size="10.00">probability::geometric</text>
<text text-anchor="start" x="324" y="-415.5" font-family="Helvetica,sans-Serif" font-size="10.00">_distribution::cumulative</text>
<text text-anchor="middle" x="378" y="-404.5" font-family="Helvetica,sans-Serif" font-size="10.00">_distribution</text>
</a>
</g>
</g>
<!-- Node2&#45;&gt;Node3 -->
<g id="edge2" class="edge">
<title>Node2&#45;&gt;Node3</title>
<path fill="none" stroke="midnightblue" d="M91.07,-244.56C90.35,-273.74 92.58,-362.06 143,-402 188.16,-437.78 254.89,-438.89 305.55,-432.73"/>
<polygon fill="midnightblue" stroke="midnightblue" points="306.33,-436.16 315.78,-431.37 305.4,-429.22 306.33,-436.16"/>
</g>
<!-- Node5 -->
<g id="node5" class="node">
<title>Node5</title>
<g id="a_node5"><a target="_blank" xlink:href="http://en.cppreference.com/w/cpp/io/manip/endl.html#" xlink:title=" ">
<polygon fill="white" stroke="black" points="351,-225.5 351,-244.5 405,-244.5 405,-225.5 351,-225.5"/>
<text text-anchor="middle" x="378" y="-232.5" font-family="Helvetica,sans-Serif" font-size="10.00">std::endl</text>
</a>
</g>
</g>
<!-- Node2&#45;&gt;Node5 -->
<g id="edge4" class="edge">
<title>Node2&#45;&gt;Node5</title>
<path fill="none" stroke="midnightblue" d="M107.26,-235C151.46,-235 277.5,-235 340.38,-235"/>
<polygon fill="midnightblue" stroke="midnightblue" points="340.64,-238.5 350.64,-235 340.64,-231.5 340.64,-238.5"/>
</g>
<!-- Node6 -->
<g id="node6" class="node">
<title>Node6</title>
<g id="a_node6"><a xlink:href="../../dc/d97/classprobability_1_1geometric__distribution.html#af098d2ba2ae150ef158790b34d20183c" target="_top" xlink:title="The expected value of a geometrically distributed random variable X.">
<polygon fill="white" stroke="black" points="305,-176 305,-206 451,-206 451,-176 305,-176"/>
<text text-anchor="start" x="313" y="-194" font-family="Helvetica,sans-Serif" font-size="10.00">probability::geometric</text>
<text text-anchor="middle" x="378" y="-183" font-family="Helvetica,sans-Serif" font-size="10.00">_distribution::expected_value</text>
</a>
</g>
</g>
<!-- Node2&#45;&gt;Node6 -->
<g id="edge5" class="edge">
<title>Node2&#45;&gt;Node6</title>
<path fill="none" stroke="midnightblue" d="M107.26,-232.57C142.39,-227.16 229.24,-213.77 294.97,-203.64"/>
<polygon fill="midnightblue" stroke="midnightblue" points="295.57,-207.09 304.92,-202.11 294.5,-200.17 295.57,-207.09"/>
</g>
<!-- Node7 -->
<g id="node7" class="node">
<title>Node7</title>
<g id="a_node7"><a xlink:href="../../dc/d97/classprobability_1_1geometric__distribution.html#afe8e3cec3f9ec89b697e674d1a4453cd" target="_top" xlink:title="The inverse cumulative distribution function.">
<polygon fill="white" stroke="black" points="487,-214.5 487,-255.5 611,-255.5 611,-214.5 487,-214.5"/>
<text text-anchor="start" x="495" y="-243.5" font-family="Helvetica,sans-Serif" font-size="10.00">probability::geometric</text>
<text text-anchor="start" x="495" y="-232.5" font-family="Helvetica,sans-Serif" font-size="10.00">_distribution::inverse</text>
<text text-anchor="middle" x="549" y="-221.5" font-family="Helvetica,sans-Serif" font-size="10.00">_cumulative_distribution</text>
</a>
</g>
</g>
<!-- Node2&#45;&gt;Node7 -->
<g id="edge6" class="edge">
<title>Node2&#45;&gt;Node7</title>
<path fill="none" stroke="midnightblue" d="M107.07,-240.26C117.19,-243.42 130.72,-247.17 143,-249 278.41,-269.21 314.73,-267.22 451,-254 459.41,-253.18 468.17,-251.98 476.84,-250.57"/>
<polygon fill="midnightblue" stroke="midnightblue" points="477.69,-253.97 486.95,-248.82 476.5,-247.07 477.69,-253.97"/>
</g>
<!-- Node9 -->
<g id="node9" class="node">
<title>Node9</title>
<g id="a_node9"><a xlink:href="../../dc/d97/classprobability_1_1geometric__distribution.html#ae8bc1cc59c743547b5af20308e8610d2" target="_top" xlink:title="The probability density function.">
<polygon fill="white" stroke="black" points="145,-301.5 145,-342.5 267,-342.5 267,-301.5 145,-301.5"/>
<text text-anchor="start" x="153" y="-330.5" font-family="Helvetica,sans-Serif" font-size="10.00">probability::geometric</text>
<text text-anchor="start" x="153" y="-319.5" font-family="Helvetica,sans-Serif" font-size="10.00">_distribution::probability</text>
<text text-anchor="middle" x="206" y="-308.5" font-family="Helvetica,sans-Serif" font-size="10.00">_density</text>
</a>
</g>
</g>
<!-- Node2&#45;&gt;Node9 -->
<g id="edge8" class="edge">
<title>Node2&#45;&gt;Node9</title>
<path fill="none" stroke="midnightblue" d="M99.56,-244.62C109.16,-255.7 126.03,-274.05 143,-287 147.07,-290.11 151.45,-293.13 155.93,-296"/>
<polygon fill="midnightblue" stroke="midnightblue" points="154.26,-299.09 164.61,-301.35 157.93,-293.13 154.26,-299.09"/>
</g>
<!-- Node10 -->
<g id="node10" class="node">
<title>Node10</title>
<g id="a_node10"><a xlink:href="../../dc/d97/classprobability_1_1geometric__distribution.html#a1af016f6437abfd09cb4099ea539e31b" target="_top" xlink:title="This function computes the probability to have success in a given range of tries.">
<polygon fill="white" stroke="black" points="143,-362 143,-392 269,-392 269,-362 143,-362"/>
<text text-anchor="start" x="151" y="-380" font-family="Helvetica,sans-Serif" font-size="10.00">probability::geometric</text>
<text text-anchor="middle" x="206" y="-369" font-family="Helvetica,sans-Serif" font-size="10.00">_distribution::range_tries</text>
</a>
</g>
</g>
<!-- Node2&#45;&gt;Node10 -->
<g id="edge10" class="edge">
<title>Node2&#45;&gt;Node10</title>
<path fill="none" stroke="midnightblue" d="M93.17,-244.58C97.49,-266.53 110.97,-320.96 143,-352 144.63,-353.58 146.36,-355.06 148.19,-356.45"/>
<polygon fill="midnightblue" stroke="midnightblue" points="146.36,-359.43 156.64,-361.99 150.2,-353.58 146.36,-359.43"/>
</g>
<!-- Node12 -->
<g id="node12" class="node">
<title>Node12</title>
<g id="a_node12"><a xlink:href="../../de/d72/geometric__dist_8cpp.html#a42df31ad2e41741e2b8ac4c3d1e900a0" target="_top" xlink:title="Tests the sampling method of the geometric distribution.">
<polygon fill="white" stroke="black" points="171,-137.5 171,-156.5 241,-156.5 241,-137.5 171,-137.5"/>
<text text-anchor="middle" x="206" y="-144.5" font-family="Helvetica,sans-Serif" font-size="10.00">sample_test</text>
</a>
</g>
</g>
<!-- Node2&#45;&gt;Node12 -->
<g id="edge13" class="edge">
<title>Node2&#45;&gt;Node12</title>
<path fill="none" stroke="midnightblue" d="M99.05,-225.13C108.43,-213.34 125.35,-193.52 143,-180 152.41,-172.79 163.62,-166.3 173.9,-161.01"/>
<polygon fill="midnightblue" stroke="midnightblue" points="175.59,-164.09 183,-156.52 172.49,-157.81 175.59,-164.09"/>
</g>
<!-- Node16 -->
<g id="node16" class="node">
<title>Node16</title>
<g id="a_node16"><a xlink:href="../../dc/d97/classprobability_1_1geometric__distribution.html#af466b4e51c24c3d71ac11d1a957411d4" target="_top" xlink:title="The variance of a geometrically distributed random variable X.">
<polygon fill="white" stroke="black" points="321,-39 321,-69 435,-69 435,-39 321,-39"/>
<text text-anchor="start" x="329" y="-57" font-family="Helvetica,sans-Serif" font-size="10.00">probability::geometric</text>
<text text-anchor="middle" x="378" y="-46" font-family="Helvetica,sans-Serif" font-size="10.00">_distribution::variance</text>
</a>
</g>
</g>
<!-- Node2&#45;&gt;Node16 -->
<g id="edge24" class="edge">
<title>Node2&#45;&gt;Node16</title>
<path fill="none" stroke="midnightblue" d="M93.41,-225.45C98.08,-204.62 112,-154.87 143,-128 149.79,-122.11 249.25,-91.85 316.3,-71.89"/>
<polygon fill="midnightblue" stroke="midnightblue" points="317.35,-75.23 325.94,-69.03 315.35,-68.52 317.35,-75.23"/>
</g>
<!-- Node17 -->
<g id="node17" class="node">
<title>Node17</title>
<g id="a_node17"><a xlink:href="../../dc/d97/classprobability_1_1geometric__distribution.html#a391bfed7957656bd294f53928a3bdbbb" target="_top" xlink:title="The standard deviation of a geometrically distributed random variable X.">
<polygon fill="white" stroke="black" points="148.5,-33.5 148.5,-74.5 263.5,-74.5 263.5,-33.5 148.5,-33.5"/>
<text text-anchor="start" x="156.5" y="-62.5" font-family="Helvetica,sans-Serif" font-size="10.00">probability::geometric</text>
<text text-anchor="start" x="156.5" y="-51.5" font-family="Helvetica,sans-Serif" font-size="10.00">_distribution::standard</text>
<text text-anchor="middle" x="206" y="-40.5" font-family="Helvetica,sans-Serif" font-size="10.00">_deviation</text>
</a>
</g>
</g>
<!-- Node2&#45;&gt;Node17 -->
<g id="edge21" class="edge">
<title>Node2&#45;&gt;Node17</title>
<path fill="none" stroke="midnightblue" d="M92.95,-225.15C96.98,-200.73 110.21,-136.43 143,-95 147.05,-89.89 151.91,-85.19 157.11,-80.96"/>
<polygon fill="midnightblue" stroke="midnightblue" points="159.59,-83.47 165.5,-74.68 155.4,-77.87 159.59,-83.47"/>
</g>
<!-- Node4 -->
<g id="node4" class="node">
<title>Node4</title>
<g id="a_node4"><a target="_blank" xlink:href="http://en.cppreference.com/w/cpp/numeric/math/pow.html#" xlink:title=" ">
<polygon fill="white" stroke="black" points="522,-363.5 522,-382.5 576,-382.5 576,-363.5 522,-363.5"/>
<text text-anchor="middle" x="549" y="-370.5" font-family="Helvetica,sans-Serif" font-size="10.00">std::pow</text>
</a>
</g>
</g>
<!-- Node3&#45;&gt;Node4 -->
<g id="edge3" class="edge">
<title>Node3&#45;&gt;Node4</title>
<path fill="none" stroke="midnightblue" d="M440.01,-401.75C464.23,-395.31 491.23,-388.12 512.18,-382.54"/>
<polygon fill="midnightblue" stroke="midnightblue" points="513.18,-385.89 521.94,-379.94 511.38,-379.13 513.18,-385.89"/>
</g>
<!-- Node8 -->
<g id="node8" class="node">
<title>Node8</title>
<g id="a_node8"><a target="_blank" xlink:href="http://en.cppreference.com/w/cpp/numeric/math/log.html#" xlink:title=" ">
<polygon fill="white" stroke="black" points="647,-225.5 647,-244.5 696,-244.5 696,-225.5 647,-225.5"/>
<text text-anchor="middle" x="671.5" y="-232.5" font-family="Helvetica,sans-Serif" font-size="10.00">std::log</text>
</a>
</g>
</g>
<!-- Node7&#45;&gt;Node8 -->
<g id="edge7" class="edge">
<title>Node7&#45;&gt;Node8</title>
<path fill="none" stroke="midnightblue" d="M611.31,-235C620.02,-235 628.71,-235 636.63,-235"/>
<polygon fill="midnightblue" stroke="midnightblue" points="636.9,-238.5 646.9,-235 636.9,-231.5 636.9,-238.5"/>
</g>
<!-- Node9&#45;&gt;Node4 -->
<g id="edge9" class="edge">
<title>Node9&#45;&gt;Node4</title>
<path fill="none" stroke="midnightblue" d="M267.45,-326.93C317,-331.45 388.84,-339.1 451,-350 471.33,-353.56 493.77,-358.8 511.94,-363.37"/>
<polygon fill="midnightblue" stroke="midnightblue" points="511.27,-366.82 521.83,-365.9 513.01,-360.03 511.27,-366.82"/>
</g>
<!-- Node10&#45;&gt;Node3 -->
<g id="edge11" class="edge">
<title>Node10&#45;&gt;Node3</title>
<path fill="none" stroke="midnightblue" d="M269.34,-392.03C281.18,-394.89 293.66,-397.9 305.76,-400.82"/>
<polygon fill="midnightblue" stroke="midnightblue" points="305.26,-404.3 315.81,-403.24 306.91,-397.49 305.26,-404.3"/>
</g>
<!-- Node11 -->
<g id="node11" class="node">
<title>Node11</title>
<g id="a_node11"><a target="_blank" xlink:href="http://en.cppreference.com/w/cpp/types/numeric_limits/max.html#" xlink:title=" ">
<polygon fill="white" stroke="black" points="316,-359.5 316,-378.5 440,-378.5 440,-359.5 316,-359.5"/>
<text text-anchor="middle" x="378" y="-366.5" font-family="Helvetica,sans-Serif" font-size="10.00">std::numeric_limits::max</text>
</a>
</g>
</g>
<!-- Node10&#45;&gt;Node11 -->
<g id="edge12" class="edge">
<title>Node10&#45;&gt;Node11</title>
<path fill="none" stroke="midnightblue" d="M269.34,-374.07C281.18,-373.51 293.66,-372.92 305.76,-372.35"/>
<polygon fill="midnightblue" stroke="midnightblue" points="305.98,-375.85 315.81,-371.88 305.65,-368.85 305.98,-375.85"/>
</g>
<!-- Node12&#45;&gt;Node5 -->
<g id="edge17" class="edge">
<title>Node12&#45;&gt;Node5</title>
<path fill="none" stroke="midnightblue" d="M217.94,-156.71C235.23,-171.57 270.48,-199.93 305,-216 316.24,-221.23 329.16,-225.21 340.93,-228.14"/>
<polygon fill="midnightblue" stroke="midnightblue" points="340.37,-231.6 350.9,-230.45 341.95,-224.79 340.37,-231.6"/>
</g>
<!-- Node12&#45;&gt;Node6 -->
<g id="edge18" class="edge">
<title>Node12&#45;&gt;Node6</title>
<path fill="none" stroke="midnightblue" d="M241.4,-155.9C260.84,-160.94 285.83,-167.4 309.06,-173.41"/>
<polygon fill="midnightblue" stroke="midnightblue" points="308.32,-176.84 318.88,-175.96 310.07,-170.06 308.32,-176.84"/>
</g>
<!-- Node13 -->
<g id="node13" class="node">
<title>Node13</title>
<g id="a_node13"><a xlink:href="../../dc/d97/classprobability_1_1geometric__distribution.html#a8a3ce0b03a692250c1a314eb85110316" target="_top" xlink:title="Generates a (discrete) sample according to the geometrical distribution.">
<polygon fill="white" stroke="black" points="310.5,-127 310.5,-157 445.5,-157 445.5,-127 310.5,-127"/>
<text text-anchor="start" x="318.5" y="-145" font-family="Helvetica,sans-Serif" font-size="10.00">probability::geometric</text>
<text text-anchor="middle" x="378" y="-134" font-family="Helvetica,sans-Serif" font-size="10.00">_distribution::draw_sample</text>
</a>
</g>
</g>
<!-- Node12&#45;&gt;Node13 -->
<g id="edge14" class="edge">
<title>Node12&#45;&gt;Node13</title>
<path fill="none" stroke="midnightblue" d="M241.4,-145.99C258.41,-145.49 279.67,-144.86 300.27,-144.26"/>
<polygon fill="midnightblue" stroke="midnightblue" points="300.42,-147.75 310.31,-143.96 300.22,-140.76 300.42,-147.75"/>
</g>
<!-- Node15 -->
<g id="node15" class="node">
<title>Node15</title>
<g id="a_node15"><a target="_blank" xlink:href="http://en.cppreference.com/w/cpp/container/vector/resize.html#" xlink:title=" ">
<polygon fill="white" stroke="black" points="330.5,-88.5 330.5,-107.5 425.5,-107.5 425.5,-88.5 330.5,-88.5"/>
<text text-anchor="middle" x="378" y="-95.5" font-family="Helvetica,sans-Serif" font-size="10.00">std::vector::resize</text>
</a>
</g>
</g>
<!-- Node12&#45;&gt;Node15 -->
<g id="edge19" class="edge">
<title>Node12&#45;&gt;Node15</title>
<path fill="none" stroke="midnightblue" d="M238.74,-137.46C257.9,-131.74 282.83,-124.36 305,-118 313.88,-115.45 323.4,-112.77 332.5,-110.23"/>
<polygon fill="midnightblue" stroke="midnightblue" points="333.48,-113.6 342.18,-107.55 331.6,-106.85 333.48,-113.6"/>
</g>
<!-- Node12&#45;&gt;Node16 -->
<g id="edge20" class="edge">
<title>Node12&#45;&gt;Node16</title>
<path fill="none" stroke="midnightblue" d="M241.11,-137.38C250.65,-133.77 260.68,-129.03 269,-123 289.46,-108.17 284.28,-93.47 305,-79 307.71,-77.11 310.58,-75.34 313.55,-73.7"/>
<polygon fill="midnightblue" stroke="midnightblue" points="315.31,-76.74 322.7,-69.15 312.19,-70.47 315.31,-76.74"/>
</g>
<!-- Node13&#45;&gt;Node7 -->
<g id="edge16" class="edge">
<title>Node13&#45;&gt;Node7</title>
<path fill="none" stroke="midnightblue" d="M428.18,-157.02C435.96,-159.98 443.81,-163.32 451,-167 473.34,-178.43 496.43,-194.41 514.47,-208.01"/>
<polygon fill="midnightblue" stroke="midnightblue" points="512.83,-211.16 522.89,-214.47 517.08,-205.61 512.83,-211.16"/>
</g>
<!-- Node14 -->
<g id="node14" class="node">
<title>Node14</title>
<g id="a_node14"><a xlink:href="../../d4/ded/namespaceprobability.html#a29f509e53d558dd9cb318048f2454d4b" target="_top" xlink:title="Returns a random number between [0,1].">
<polygon fill="white" stroke="black" points="495.5,-127 495.5,-157 602.5,-157 602.5,-127 495.5,-127"/>
<text text-anchor="start" x="503.5" y="-145" font-family="Helvetica,sans-Serif" font-size="10.00">probability::generate</text>
<text text-anchor="middle" x="549" y="-134" font-family="Helvetica,sans-Serif" font-size="10.00">_uniform</text>
</a>
</g>
</g>
<!-- Node13&#45;&gt;Node14 -->
<g id="edge15" class="edge">
<title>Node13&#45;&gt;Node14</title>
<path fill="none" stroke="midnightblue" d="M445.79,-142C458.82,-142 472.44,-142 485.34,-142"/>
<polygon fill="midnightblue" stroke="midnightblue" points="485.49,-145.5 495.49,-142 485.49,-138.5 485.49,-145.5"/>
</g>
<!-- Node17&#45;&gt;Node16 -->
<g id="edge23" class="edge">
<title>Node17&#45;&gt;Node16</title>
<path fill="none" stroke="midnightblue" d="M263.61,-54C278.74,-54 295.23,-54 310.83,-54"/>
<polygon fill="midnightblue" stroke="midnightblue" points="310.93,-57.5 320.93,-54 310.93,-50.5 310.93,-57.5"/>
</g>
<!-- Node18 -->
<g id="node18" class="node">
<title>Node18</title>
<g id="a_node18"><a target="_blank" xlink:href="http://en.cppreference.com/w/cpp/numeric/math/sqrt.html#" xlink:title=" ">
<polygon fill="white" stroke="black" points="352,-0.5 352,-19.5 404,-19.5 404,-0.5 352,-0.5"/>
<text text-anchor="middle" x="378" y="-7.5" font-family="Helvetica,sans-Serif" font-size="10.00">std::sqrt</text>
</a>
</g>
</g>
<!-- Node17&#45;&gt;Node18 -->
<g id="edge22" class="edge">
<title>Node17&#45;&gt;Node18</title>
<path fill="none" stroke="midnightblue" d="M263.61,-39.35C289.57,-32.63 319.53,-24.87 342.13,-19.02"/>
<polygon fill="midnightblue" stroke="midnightblue" points="343.15,-22.38 351.96,-16.48 341.4,-15.6 343.15,-22.38"/>
</g>
</g>
</svg>
        <g id="navigator" transform="translate(0 0)" fill="#404254">
                <rect fill="#f2f5e9" fill-opacity="0.5" stroke="#606060" stroke-width=".5" x="0" y="0" width="60" height="60"/>
                <use id="zoomplus" xlink:href="#zoomPlus" x="17" y="9" onmousedown="handleZoom(evt,'in')"/>
                <use id="zoomminus" xlink:href="#zoomMin" x="42" y="9" onmousedown="handleZoom(evt,'out')"/>
                <use id="reset" xlink:href="#resetDef" x="30" y="36" onmousedown="handleReset()"/>
                <g id="arrowUp" xlink:href="#dirArrow" transform="translate(30 24)" onmousedown="handlePan(0,-1)">
                  <use xlink:href="#rim" fill="#404040">
                        <set attributeName="fill" to="#808080" begin="arrowUp.mouseover" end="arrowUp.mouseout"/>
                  </use>
                  <path fill="none" stroke="white" stroke-width="1.5" d="M0,-3.0v7 M-2.5,-0.5L0,-3.0L2.5,-0.5"/>
                </g>
                <g id="arrowRight" xlink:href="#dirArrow" transform="rotate(90) translate(36 -43)" onmousedown="handlePan(1,0)">
                  <use xlink:href="#rim" fill="#404040">
                        <set attributeName="fill" to="#808080" begin="arrowRight.mouseover" end="arrowRight.mouseout"/>
                  </use>
                  <path fill="none" stroke="white" stroke-width="1.5" d="M0,-3.0v7 M-2.5,-0.5L0,-3.0L2.5,-0.5"/>
                </g>
                <g id="arrowDown" xlink:href="#dirArrow" transform="rotate(180) translate(-30 -48)" onmousedown="handlePan(0,1)">
                  <use xlink:href="#rim" fill="#404040">
                        <set attributeName="fill" to="#808080" begin="arrowDown.mouseover" end="arrowDown.mouseout"/>
                  </use>
                  <path fill="none" stroke="white" stroke-width="1.5" d="M0,-3.0v7 M-2.5,-0.5L0,-3.0L2.5,-0.5"/>
                </g>
                <g id="arrowLeft" xlink:href="#dirArrow" transform="rotate(270) translate(-36 17)" onmousedown="handlePan(-1,0)">
                  <use xlink:href="#rim" fill="#404040">
                        <set attributeName="fill" to="#808080" begin="arrowLeft.mouseover" end="arrowLeft.mouseout"/>
                  </use>
                  <path fill="none" stroke="white" stroke-width="1.5" d="M0,-3.0v7 M-2.5,-0.5L0,-3.0L2.5,-0.5"/>
                </g>
        </g>
        <svg viewBox="0 0 15 15" width="100%" height="30px" preserveAspectRatio="xMaxYMin meet">
         <g id="arrow_out" transform="scale(0.3 0.3)">
          <a xlink:href="geometric__dist_8cpp_ae66f6b31b5ad750f1fe042a706a4e3d4_cgraph_org.svg" target="_base">
           <rect id="button" ry="5" rx="5" y="6" x="6" height="38" width="38"
                fill="#f2f5e9" fill-opacity="0.5" stroke="#606060" stroke-width="1.0"/>
           <path id="arrow"
             d="M 11.500037,31.436501 C 11.940474,20.09759 22.043105,11.32322 32.158766,21.979434 L 37.068811,17.246167 C 37.068811,17.246167 37.088388,32 37.088388,32 L 22.160133,31.978069 C 22.160133,31.978069 26.997745,27.140456 26.997745,27.140456 C 18.528582,18.264221 13.291696,25.230495 11.500037,31.436501 z"
             style="fill:#404040;"/>
          </a>
         </g>
        </svg>
</svg>
