<?xml version="1.0" encoding="UTF-8" standalone="no"?>
<!DOCTYPE svg PUBLIC "-//W3C//DTD SVG 1.1//EN"
 "http://www.w3.org/Graphics/SVG/1.1/DTD/svg11.dtd">
<!-- Generated by graphviz version 2.49.1 (20210923.0004)
 -->
<!-- Title: main Pages: 1 -->
<!--zoomable 407 -->
<svg id="main" version="1.1" xmlns="http://www.w3.org/2000/svg" xmlns:xlink="http://www.w3.org/1999/xlink" xml:space="preserve" onload="init(evt)">
<style type="text/css"><![CDATA[
.edge:hover path { stroke: red; }
.edge:hover polygon { stroke: red; fill: red; }
]]></style>
<script type="text/javascript"><![CDATA[
var edges = document.getElementsByTagName('g');
if (edges && edges.length) {
  for (var i=0;i<edges.length;i++) {
    if (edges[i].id.substr(0,4)=='edge') {
      edges[i].setAttribute('class','edge');
    }
  }
}
]]></script>
        <defs>
                <circle id="rim" cx="0" cy="0" r="7"/>
                <circle id="rim2" cx="0" cy="0" r="3.5"/>
                <g id="zoomPlus">
                        <use xlink:href="#rim" fill="#404040">
                                <set attributeName="fill" to="#808080" begin="zoomplus.mouseover" end="zoomplus.mouseout"/>
                        </use>
                        <path d="M-4,0h8M0,-4v8" fill="none" stroke="white" stroke-width="1.5" pointer-events="none"/>
                </g>
                <g id="zoomMin">
                        <use xlink:href="#rim" fill="#404040">
                                <set attributeName="fill" to="#808080" begin="zoomminus.mouseover" end="zoomminus.mouseout"/>
                        </use>
                        <path d="M-4,0h8" fill="none" stroke="white" stroke-width="1.5" pointer-events="none"/>
                </g>
                <g id="dirArrow">
                        <path fill="none" stroke="white" stroke-width="1.5" d="M0,-3.0v7 M-2.5,-0.5L0,-3.0L2.5,-0.5"/>
                </g>
               <g id="resetDef">
                       <use xlink:href="#rim2" fill="#404040">
                               <set attributeName="fill" to="#808080" begin="reset.mouseover" end="reset.mouseout"/>
                       </use>
               </g>
        </defs>

<script type="text/javascript">
var viewWidth = 704;
var viewHeight = 407;
var sectionId = 'dynsection-1';
</script>
<script xlink:href="../../svgpan.js"/>
<svg id="graph" class="graph">
<g id="viewport">
<title>main</title>
<polygon fill="white" stroke="transparent" points="-4,4 -4,-403 700,-403 700,4 -4,4"/>
<!-- Node1 -->
<g id="node1" class="node">
<title>Node1</title>
<g id="a_node1"><a xlink:title="Main function.">
<polygon fill="#bfbfbf" stroke="black" points="0,-191.5 0,-210.5 38,-210.5 38,-191.5 0,-191.5"/>
<text text-anchor="middle" x="19" y="-198.5" font-family="Helvetica,sans-Serif" font-size="10.00">main</text>
</a>
</g>
</g>
<!-- Node2 -->
<g id="node2" class="node">
<title>Node2</title>
<g id="a_node2"><a xlink:href="../../de/d72/geometric__dist_8cpp.html#aa8dca7b867074164d5f45b0f3851269d" target="_top" xlink:title="Self&#45;test implementation.">
<polygon fill="white" stroke="black" points="74,-191.5 74,-210.5 107,-210.5 107,-191.5 74,-191.5"/>
<text text-anchor="middle" x="90.5" y="-198.5" font-family="Helvetica,sans-Serif" font-size="10.00">test</text>
</a>
</g>
</g>
<!-- Node1&#45;&gt;Node2 -->
<g id="edge1" class="edge">
<title>Node1&#45;&gt;Node2</title>
<path fill="none" stroke="midnightblue" d="M38.26,-201C46.07,-201 55.31,-201 63.79,-201"/>
<polygon fill="midnightblue" stroke="midnightblue" points="63.95,-204.5 73.95,-201 63.95,-197.5 63.95,-204.5"/>
</g>
<!-- Node3 -->
<g id="node3" class="node">
<title>Node3</title>
<g id="a_node3"><a xlink:href="../../dc/d97/classprobability_1_1geometric__distribution.html#a7362f7161d86cd025888e55158033088" target="_top" xlink:title="The cumulative distribution function.">
<polygon fill="white" stroke="black" points="316,-273.5 316,-314.5 440,-314.5 440,-273.5 316,-273.5"/>
<text text-anchor="start" x="324" y="-302.5" font-family="Helvetica,sans-Serif" font-size="10.00">probability::geometric</text>
<text text-anchor="start" x="324" y="-291.5" font-family="Helvetica,sans-Serif" font-size="10.00">_distribution::cumulative</text>
<text text-anchor="middle" x="378" y="-280.5" font-family="Helvetica,sans-Serif" font-size="10.00">_distribution</text>
</a>
</g>
</g>
<!-- Node2&#45;&gt;Node3 -->
<g id="edge2" class="edge">
<title>Node2&#45;&gt;Node3</title>
<path fill="none" stroke="midnightblue" d="M102.17,-210.58C112.08,-218.99 127.58,-230.95 143,-238 194.96,-261.76 258.19,-276.12 305.82,-284.34"/>
<polygon fill="midnightblue" stroke="midnightblue" points="305.29,-287.8 315.73,-286 306.45,-280.89 305.29,-287.8"/>
</g>
<!-- Node5 -->
<g id="node5" class="node">
<title>Node5</title>
<g id="a_node5"><a target="_blank" xlink:href="http://en.cppreference.com/w/cpp/io/manip/endl.html#" xlink:title=" ">
<polygon fill="white" stroke="black" points="351,-235.5 351,-254.5 405,-254.5 405,-235.5 351,-235.5"/>
<text text-anchor="middle" x="378" y="-242.5" font-family="Helvetica,sans-Serif" font-size="10.00">std::endl</text>
</a>
</g>
</g>
<!-- Node2&#45;&gt;Node5 -->
<g id="edge4" class="edge">
<title>Node2&#45;&gt;Node5</title>
<path fill="none" stroke="midnightblue" d="M107.14,-205.86C117.28,-208.85 130.82,-212.58 143,-215 212.32,-228.8 294.5,-237.62 340.72,-241.91"/>
<polygon fill="midnightblue" stroke="midnightblue" points="340.56,-245.41 350.84,-242.83 341.2,-238.44 340.56,-245.41"/>
</g>
<!-- Node6 -->
<g id="node6" class="node">
<title>Node6</title>
<g id="a_node6"><a xlink:href="../../dc/d97/classprobability_1_1geometric__distribution.html#af098d2ba2ae150ef158790b34d20183c" target="_top" xlink:title="The expected value of a geometrically distributed random variable X.">
<polygon fill="white" stroke="black" points="305,-186 305,-216 451,-216 451,-186 305,-186"/>
<text text-anchor="start" x="313" y="-204" font-family="Helvetica,sans-Serif" font-size="10.00">probability::geometric</text>
<text text-anchor="middle" x="378" y="-193" font-family="Helvetica,sans-Serif" font-size="10.00">_distribution::expected_value</text>
</a>
</g>
</g>
<!-- Node2&#45;&gt;Node6 -->
<g id="edge5" class="edge">
<title>Node2&#45;&gt;Node6</title>
<path fill="none" stroke="midnightblue" d="M107.26,-201C142.32,-201 228.88,-201 294.56,-201"/>
<polygon fill="midnightblue" stroke="midnightblue" points="294.92,-204.5 304.92,-201 294.92,-197.5 294.92,-204.5"/>
</g>
<!-- Node7 -->
<g id="node7" class="node">
<title>Node7</title>
<g id="a_node7"><a xlink:href="../../dc/d97/classprobability_1_1geometric__distribution.html#afe8e3cec3f9ec89b697e674d1a4453cd" target="_top" xlink:title="The inverse cumulative distribution function.">
<polygon fill="white" stroke="black" points="487,-87.5 487,-128.5 611,-128.5 611,-87.5 487,-87.5"/>
<text text-anchor="start" x="495" y="-116.5" font-family="Helvetica,sans-Serif" font-size="10.00">probability::geometric</text>
<text text-anchor="start" x="495" y="-105.5" font-family="Helvetica,sans-Serif" font-size="10.00">_distribution::inverse</text>
<text text-anchor="middle" x="549" y="-94.5" font-family="Helvetica,sans-Serif" font-size="10.00">_cumulative_distribution</text>
</a>
</g>
</g>
<!-- Node2&#45;&gt;Node7 -->
<g id="edge6" class="edge">
<title>Node2&#45;&gt;Node7</title>
<path fill="none" stroke="midnightblue" d="M97.04,-191.35C105.21,-178.11 121.84,-154.76 143,-144 249.57,-89.82 392.4,-91.57 476.86,-98.96"/>
<polygon fill="midnightblue" stroke="midnightblue" points="476.59,-102.45 486.87,-99.89 477.23,-95.48 476.59,-102.45"/>
</g>
<!-- Node9 -->
<g id="node9" class="node">
<title>Node9</title>
<g id="a_node9"><a xlink:href="../../dc/d97/classprobability_1_1geometric__distribution.html#ae8bc1cc59c743547b5af20308e8610d2" target="_top" xlink:title="The probability density function.">
<polygon fill="white" stroke="black" points="145,-357.5 145,-398.5 267,-398.5 267,-357.5 145,-357.5"/>
<text text-anchor="start" x="153" y="-386.5" font-family="Helvetica,sans-Serif" font-size="10.00">probability::geometric</text>
<text text-anchor="start" x="153" y="-375.5" font-family="Helvetica,sans-Serif" font-size="10.00">_distribution::probability</text>
<text text-anchor="middle" x="206" y="-364.5" font-family="Helvetica,sans-Serif" font-size="10.00">_density</text>
</a>
</g>
</g>
<!-- Node2&#45;&gt;Node9 -->
<g id="edge8" class="edge">
<title>Node2&#45;&gt;Node9</title>
<path fill="none" stroke="midnightblue" d="M92.48,-210.69C95.51,-235.92 106.8,-304.55 143,-346 144.52,-347.74 146.16,-349.4 147.89,-350.98"/>
<polygon fill="midnightblue" stroke="midnightblue" points="145.98,-353.94 155.99,-357.41 150.34,-348.45 145.98,-353.94"/>
</g>
<!-- Node10 -->
<g id="node10" class="node">
<title>Node10</title>
<g id="a_node10"><a xlink:href="../../dc/d97/classprobability_1_1geometric__distribution.html#a1af016f6437abfd09cb4099ea539e31b" target="_top" xlink:title="This function computes the probability to have success in a given range of tries.">
<polygon fill="white" stroke="black" points="143,-306 143,-336 269,-336 269,-306 143,-306"/>
<text text-anchor="start" x="151" y="-324" font-family="Helvetica,sans-Serif" font-size="10.00">probability::geometric</text>
<text text-anchor="middle" x="206" y="-313" font-family="Helvetica,sans-Serif" font-size="10.00">_distribution::range_tries</text>
</a>
</g>
</g>
<!-- Node2&#45;&gt;Node10 -->
<g id="edge10" class="edge">
<title>Node2&#45;&gt;Node10</title>
<path fill="none" stroke="midnightblue" d="M94.81,-210.64C101.4,-228.58 117.73,-267.42 143,-291 146.84,-294.58 151.18,-297.81 155.74,-300.71"/>
<polygon fill="midnightblue" stroke="midnightblue" points="154.3,-303.92 164.71,-305.89 157.8,-297.86 154.3,-303.92"/>
</g>
<!-- Node12 -->
<g id="node12" class="node">
<title>Node12</title>
<g id="a_node12"><a xlink:href="../../de/d72/geometric__dist_8cpp.html#a42df31ad2e41741e2b8ac4c3d1e900a0" target="_top" xlink:title="Tests the sampling method of the geometric distribution.">
<polygon fill="white" stroke="black" points="171,-153.5 171,-172.5 241,-172.5 241,-153.5 171,-153.5"/>
<text text-anchor="middle" x="206" y="-160.5" font-family="Helvetica,sans-Serif" font-size="10.00">sample_test</text>
</a>
</g>
</g>
<!-- Node2&#45;&gt;Node12 -->
<g id="edge13" class="edge">
<title>Node2&#45;&gt;Node12</title>
<path fill="none" stroke="midnightblue" d="M107.28,-195.72C122.57,-190.6 146.34,-182.64 166.61,-175.85"/>
<polygon fill="midnightblue" stroke="midnightblue" points="167.86,-179.13 176.23,-172.63 165.64,-172.49 167.86,-179.13"/>
</g>
<!-- Node15 -->
<g id="node15" class="node">
<title>Node15</title>
<g id="a_node15"><a xlink:href="../../dc/d97/classprobability_1_1geometric__distribution.html#af466b4e51c24c3d71ac11d1a957411d4" target="_top" xlink:title="The variance of a geometrically distributed random variable X.">
<polygon fill="white" stroke="black" points="321,-49 321,-79 435,-79 435,-49 321,-49"/>
<text text-anchor="start" x="329" y="-67" font-family="Helvetica,sans-Serif" font-size="10.00">probability::geometric</text>
<text text-anchor="middle" x="378" y="-56" font-family="Helvetica,sans-Serif" font-size="10.00">_distribution::variance</text>
</a>
</g>
</g>
<!-- Node2&#45;&gt;Node15 -->
<g id="edge23" class="edge">
<title>Node2&#45;&gt;Node15</title>
<path fill="none" stroke="midnightblue" d="M93.01,-191.34C96.94,-169.86 109.56,-118.12 143,-94 191.17,-59.26 259.85,-54.25 310.35,-56.44"/>
<polygon fill="midnightblue" stroke="midnightblue" points="310.34,-59.94 320.51,-56.98 310.72,-52.95 310.34,-59.94"/>
</g>
<!-- Node16 -->
<g id="node16" class="node">
<title>Node16</title>
<g id="a_node16"><a xlink:href="../../dc/d97/classprobability_1_1geometric__distribution.html#a391bfed7957656bd294f53928a3bdbbb" target="_top" xlink:title="The standard deviation of a geometrically distributed random variable X.">
<polygon fill="white" stroke="black" points="148.5,-0.5 148.5,-41.5 263.5,-41.5 263.5,-0.5 148.5,-0.5"/>
<text text-anchor="start" x="156.5" y="-29.5" font-family="Helvetica,sans-Serif" font-size="10.00">probability::geometric</text>
<text text-anchor="start" x="156.5" y="-18.5" font-family="Helvetica,sans-Serif" font-size="10.00">_distribution::standard</text>
<text text-anchor="middle" x="206" y="-7.5" font-family="Helvetica,sans-Serif" font-size="10.00">_deviation</text>
</a>
</g>
</g>
<!-- Node2&#45;&gt;Node16 -->
<g id="edge20" class="edge">
<title>Node2&#45;&gt;Node16</title>
<path fill="none" stroke="midnightblue" d="M92.57,-191.39C95.82,-166.35 107.59,-98.12 143,-56 145.45,-53.08 148.21,-50.36 151.17,-47.83"/>
<polygon fill="midnightblue" stroke="midnightblue" points="153.55,-50.42 159.38,-41.58 149.31,-44.85 153.55,-50.42"/>
</g>
<!-- Node4 -->
<g id="node4" class="node">
<title>Node4</title>
<g id="a_node4"><a target="_blank" xlink:href="http://en.cppreference.com/w/cpp/numeric/math/pow.html#" xlink:title=" ">
<polygon fill="white" stroke="black" points="522,-327.5 522,-346.5 576,-346.5 576,-327.5 522,-327.5"/>
<text text-anchor="middle" x="549" y="-334.5" font-family="Helvetica,sans-Serif" font-size="10.00">std::pow</text>
</a>
</g>
</g>
<!-- Node3&#45;&gt;Node4 -->
<g id="edge3" class="edge">
<title>Node3&#45;&gt;Node4</title>
<path fill="none" stroke="midnightblue" d="M440.01,-309.52C464.23,-315.68 491.23,-322.56 512.18,-327.89"/>
<polygon fill="midnightblue" stroke="midnightblue" points="511.39,-331.3 521.94,-330.37 513.11,-324.51 511.39,-331.3"/>
</g>
<!-- Node8 -->
<g id="node8" class="node">
<title>Node8</title>
<g id="a_node8"><a target="_blank" xlink:href="http://en.cppreference.com/w/cpp/numeric/math/log.html#" xlink:title=" ">
<polygon fill="white" stroke="black" points="647,-98.5 647,-117.5 696,-117.5 696,-98.5 647,-98.5"/>
<text text-anchor="middle" x="671.5" y="-105.5" font-family="Helvetica,sans-Serif" font-size="10.00">std::log</text>
</a>
</g>
</g>
<!-- Node7&#45;&gt;Node8 -->
<g id="edge7" class="edge">
<title>Node7&#45;&gt;Node8</title>
<path fill="none" stroke="midnightblue" d="M611.31,-108C620.02,-108 628.71,-108 636.63,-108"/>
<polygon fill="midnightblue" stroke="midnightblue" points="636.9,-111.5 646.9,-108 636.9,-104.5 636.9,-111.5"/>
</g>
<!-- Node9&#45;&gt;Node4 -->
<g id="edge9" class="edge">
<title>Node9&#45;&gt;Node4</title>
<path fill="none" stroke="midnightblue" d="M267.01,-377.18C316.62,-375.76 388.75,-371.97 451,-362 471.57,-358.7 494.14,-353.02 512.32,-347.9"/>
<polygon fill="midnightblue" stroke="midnightblue" points="513.29,-351.26 521.93,-345.13 511.35,-344.54 513.29,-351.26"/>
</g>
<!-- Node10&#45;&gt;Node3 -->
<g id="edge11" class="edge">
<title>Node10&#45;&gt;Node3</title>
<path fill="none" stroke="midnightblue" d="M269.34,-311.1C281.18,-309.22 293.66,-307.24 305.76,-305.32"/>
<polygon fill="midnightblue" stroke="midnightblue" points="306.48,-308.74 315.81,-303.72 305.38,-301.83 306.48,-308.74"/>
</g>
<!-- Node11 -->
<g id="node11" class="node">
<title>Node11</title>
<g id="a_node11"><a target="_blank" xlink:href="http://en.cppreference.com/w/cpp/types/numeric_limits/max.html#" xlink:title=" ">
<polygon fill="white" stroke="black" points="316,-333.5 316,-352.5 440,-352.5 440,-333.5 316,-333.5"/>
<text text-anchor="middle" x="378" y="-340.5" font-family="Helvetica,sans-Serif" font-size="10.00">std::numeric_limits::max</text>
</a>
</g>
</g>
<!-- Node10&#45;&gt;Node11 -->
<g id="edge12" class="edge">
<title>Node10&#45;&gt;Node11</title>
<path fill="none" stroke="midnightblue" d="M269.34,-329.07C281.18,-330.6 293.66,-332.21 305.76,-333.78"/>
<polygon fill="midnightblue" stroke="midnightblue" points="305.44,-337.27 315.81,-335.08 306.34,-330.33 305.44,-337.27"/>
</g>
<!-- Node12&#45;&gt;Node5 -->
<g id="edge17" class="edge">
<title>Node12&#45;&gt;Node5</title>
<path fill="none" stroke="midnightblue" d="M219.27,-172.71C237.15,-186.42 271.86,-211.41 305,-226 316.26,-230.96 329.09,-234.85 340.77,-237.79"/>
<polygon fill="midnightblue" stroke="midnightblue" points="340.14,-241.24 350.68,-240.13 341.75,-234.43 340.14,-241.24"/>
</g>
<!-- Node12&#45;&gt;Node6 -->
<g id="edge18" class="edge">
<title>Node12&#45;&gt;Node6</title>
<path fill="none" stroke="midnightblue" d="M241.4,-170.69C258.24,-174.45 279.25,-179.15 299.67,-183.71"/>
<polygon fill="midnightblue" stroke="midnightblue" points="299.1,-187.17 309.62,-185.94 300.63,-180.34 299.1,-187.17"/>
</g>
<!-- Node13 -->
<g id="node13" class="node">
<title>Node13</title>
<g id="a_node13"><a xlink:href="../../dc/d97/classprobability_1_1geometric__distribution.html#a8a3ce0b03a692250c1a314eb85110316" target="_top" xlink:title="Generates a (discrete) sample according to the geometrical distribution.">
<polygon fill="white" stroke="black" points="310.5,-137 310.5,-167 445.5,-167 445.5,-137 310.5,-137"/>
<text text-anchor="start" x="318.5" y="-155" font-family="Helvetica,sans-Serif" font-size="10.00">probability::geometric</text>
<text text-anchor="middle" x="378" y="-144" font-family="Helvetica,sans-Serif" font-size="10.00">_distribution::draw_sample</text>
</a>
</g>
</g>
<!-- Node12&#45;&gt;Node13 -->
<g id="edge14" class="edge">
<title>Node12&#45;&gt;Node13</title>
<path fill="none" stroke="midnightblue" d="M241.4,-160.77C258.41,-159.67 279.67,-158.3 300.27,-156.96"/>
<polygon fill="midnightblue" stroke="midnightblue" points="300.56,-160.45 310.31,-156.31 300.11,-153.47 300.56,-160.45"/>
</g>
<!-- Node12&#45;&gt;Node15 -->
<g id="edge19" class="edge">
<title>Node12&#45;&gt;Node15</title>
<path fill="none" stroke="midnightblue" d="M223.61,-153.33C251.03,-137.36 306.32,-105.16 342.49,-84.1"/>
<polygon fill="midnightblue" stroke="midnightblue" points="344.36,-87.06 351.24,-79 340.84,-81.01 344.36,-87.06"/>
</g>
<!-- Node13&#45;&gt;Node7 -->
<g id="edge16" class="edge">
<title>Node13&#45;&gt;Node7</title>
<path fill="none" stroke="midnightblue" d="M436.69,-136.98C449.69,-133.6 463.64,-129.96 477.11,-126.46"/>
<polygon fill="midnightblue" stroke="midnightblue" points="478.03,-129.83 486.82,-123.93 476.26,-123.06 478.03,-129.83"/>
</g>
<!-- Node14 -->
<g id="node14" class="node">
<title>Node14</title>
<g id="a_node14"><a xlink:href="../../d4/ded/namespaceprobability.html#a29f509e53d558dd9cb318048f2454d4b" target="_top" xlink:title="Returns a random number between [0,1].">
<polygon fill="white" stroke="black" points="495.5,-148 495.5,-178 602.5,-178 602.5,-148 495.5,-148"/>
<text text-anchor="start" x="503.5" y="-166" font-family="Helvetica,sans-Serif" font-size="10.00">probability::generate</text>
<text text-anchor="middle" x="549" y="-155" font-family="Helvetica,sans-Serif" font-size="10.00">_uniform</text>
</a>
</g>
</g>
<!-- Node13&#45;&gt;Node14 -->
<g id="edge15" class="edge">
<title>Node13&#45;&gt;Node14</title>
<path fill="none" stroke="midnightblue" d="M445.79,-156.35C458.82,-157.2 472.44,-158.08 485.34,-158.92"/>
<polygon fill="midnightblue" stroke="midnightblue" points="485.29,-162.43 495.49,-159.58 485.74,-155.44 485.29,-162.43"/>
</g>
<!-- Node16&#45;&gt;Node15 -->
<g id="edge22" class="edge">
<title>Node16&#45;&gt;Node15</title>
<path fill="none" stroke="midnightblue" d="M263.61,-35.32C278.74,-39.15 295.23,-43.32 310.83,-47.26"/>
<polygon fill="midnightblue" stroke="midnightblue" points="310.38,-50.76 320.93,-49.82 312.09,-43.97 310.38,-50.76"/>
</g>
<!-- Node17 -->
<g id="node17" class="node">
<title>Node17</title>
<g id="a_node17"><a target="_blank" xlink:href="http://en.cppreference.com/w/cpp/numeric/math/sqrt.html#" xlink:title=" ">
<polygon fill="white" stroke="black" points="352,-10.5 352,-29.5 404,-29.5 404,-10.5 352,-10.5"/>
<text text-anchor="middle" x="378" y="-17.5" font-family="Helvetica,sans-Serif" font-size="10.00">std::sqrt</text>
</a>
</g>
</g>
<!-- Node16&#45;&gt;Node17 -->
<g id="edge21" class="edge">
<title>Node16&#45;&gt;Node17</title>
<path fill="none" stroke="midnightblue" d="M263.61,-20.67C289.46,-20.51 319.26,-20.34 341.83,-20.21"/>
<polygon fill="midnightblue" stroke="midnightblue" points="341.98,-23.71 351.96,-20.15 341.94,-16.71 341.98,-23.71"/>
</g>
</g>
</svg>
        <g id="navigator" transform="translate(0 0)" fill="#404254">
                <rect fill="#f2f5e9" fill-opacity="0.5" stroke="#606060" stroke-width=".5" x="0" y="0" width="60" height="60"/>
                <use id="zoomplus" xlink:href="#zoomPlus" x="17" y="9" onmousedown="handleZoom(evt,'in')"/>
                <use id="zoomminus" xlink:href="#zoomMin" x="42" y="9" onmousedown="handleZoom(evt,'out')"/>
                <use id="reset" xlink:href="#resetDef" x="30" y="36" onmousedown="handleReset()"/>
                <g id="arrowUp" xlink:href="#dirArrow" transform="translate(30 24)" onmousedown="handlePan(0,-1)">
                  <use xlink:href="#rim" fill="#404040">
                        <set attributeName="fill" to="#808080" begin="arrowUp.mouseover" end="arrowUp.mouseout"/>
                  </use>
                  <path fill="none" stroke="white" stroke-width="1.5" d="M0,-3.0v7 M-2.5,-0.5L0,-3.0L2.5,-0.5"/>
                </g>
                <g id="arrowRight" xlink:href="#dirArrow" transform="rotate(90) translate(36 -43)" onmousedown="handlePan(1,0)">
                  <use xlink:href="#rim" fill="#404040">
                        <set attributeName="fill" to="#808080" begin="arrowRight.mouseover" end="arrowRight.mouseout"/>
                  </use>
                  <path fill="none" stroke="white" stroke-width="1.5" d="M0,-3.0v7 M-2.5,-0.5L0,-3.0L2.5,-0.5"/>
                </g>
                <g id="arrowDown" xlink:href="#dirArrow" transform="rotate(180) translate(-30 -48)" onmousedown="handlePan(0,1)">
                  <use xlink:href="#rim" fill="#404040">
                        <set attributeName="fill" to="#808080" begin="arrowDown.mouseover" end="arrowDown.mouseout"/>
                  </use>
                  <path fill="none" stroke="white" stroke-width="1.5" d="M0,-3.0v7 M-2.5,-0.5L0,-3.0L2.5,-0.5"/>
                </g>
                <g id="arrowLeft" xlink:href="#dirArrow" transform="rotate(270) translate(-36 17)" onmousedown="handlePan(-1,0)">
                  <use xlink:href="#rim" fill="#404040">
                        <set attributeName="fill" to="#808080" begin="arrowLeft.mouseover" end="arrowLeft.mouseout"/>
                  </use>
                  <path fill="none" stroke="white" stroke-width="1.5" d="M0,-3.0v7 M-2.5,-0.5L0,-3.0L2.5,-0.5"/>
                </g>
        </g>
        <svg viewBox="0 0 15 15" width="100%" height="30px" preserveAspectRatio="xMaxYMin meet">
         <g id="arrow_out" transform="scale(0.3 0.3)">
          <a xlink:href="geometric__dist_8cpp_ae66f6b31b5ad750f1fe042a706a4e3d4_cgraph_org.svg" target="_base">
           <rect id="button" ry="5" rx="5" y="6" x="6" height="38" width="38"
                fill="#f2f5e9" fill-opacity="0.5" stroke="#606060" stroke-width="1.0"/>
           <path id="arrow"
             d="M 11.500037,31.436501 C 11.940474,20.09759 22.043105,11.32322 32.158766,21.979434 L 37.068811,17.246167 C 37.068811,17.246167 37.088388,32 37.088388,32 L 22.160133,31.978069 C 22.160133,31.978069 26.997745,27.140456 26.997745,27.140456 C 18.528582,18.264221 13.291696,25.230495 11.500037,31.436501 z"
             style="fill:#404040;"/>
          </a>
         </g>
        </svg>
</svg>
