<?xml version="1.0" encoding="UTF-8" standalone="no"?>
<!DOCTYPE svg PUBLIC "-//W3C//DTD SVG 1.1//EN"
 "http://www.w3.org/Graphics/SVG/1.1/DTD/svg11.dtd">
<!-- Generated by graphviz version 2.49.1 (20210923.0004)
 -->
<!-- Title: sample_test Pages: 1 -->
<!--zoomable 203 -->
<svg id="main" version="1.1" xmlns="http://www.w3.org/2000/svg" xmlns:xlink="http://www.w3.org/1999/xlink" xml:space="preserve" onload="init(evt)">
<style type="text/css"><![CDATA[
.edge:hover path { stroke: red; }
.edge:hover polygon { stroke: red; fill: red; }
]]></style>
<script type="text/javascript"><![CDATA[
var edges = document.getElementsByTagName('g');
if (edges && edges.length) {
  for (var i=0;i<edges.length;i++) {
    if (edges[i].id.substr(0,4)=='edge') {
      edges[i].setAttribute('class','edge');
    }
  }
}
]]></script>
        <defs>
                <circle id="rim" cx="0" cy="0" r="7"/>
                <circle id="rim2" cx="0" cy="0" r="3.5"/>
                <g id="zoomPlus">
                        <use xlink:href="#rim" fill="#404040">
                                <set attributeName="fill" to="#808080" begin="zoomplus.mouseover" end="zoomplus.mouseout"/>
                        </use>
                        <path d="M-4,0h8M0,-4v8" fill="none" stroke="white" stroke-width="1.5" pointer-events="none"/>
                </g>
                <g id="zoomMin">
                        <use xlink:href="#rim" fill="#404040">
                                <set attributeName="fill" to="#808080" begin="zoomminus.mouseover" end="zoomminus.mouseout"/>
                        </use>
                        <path d="M-4,0h8" fill="none" stroke="white" stroke-width="1.5" pointer-events="none"/>
                </g>
                <g id="dirArrow">
                        <path fill="none" stroke="white" stroke-width="1.5" d="M0,-3.0v7 M-2.5,-0.5L0,-3.0L2.5,-0.5"/>
                </g>
               <g id="resetDef">
                       <use xlink:href="#rim2" fill="#404040">
                               <set attributeName="fill" to="#808080" begin="reset.mouseover" end="reset.mouseout"/>
                       </use>
               </g>
        </defs>

<script type="text/javascript">
var viewWidth = 505;
var viewHeight = 203;
var sectionId = 'dynsection-2';
</script>
<script xlink:href="../../svgpan.js"/>
<svg id="graph" class="graph">
<g id="viewport">
<title>sample_test</title>
<polygon fill="white" stroke="transparent" points="-4,4 -4,-199 501,-199 501,4 -4,4"/>
<!-- Node1 -->
<g id="node1" class="node">
<title>Node1</title>
<g id="a_node1"><a xlink:title="Tests the sampling method of the geometric distribution.">
<polygon fill="#bfbfbf" stroke="black" points="0,-77 0,-96 70,-96 70,-77 0,-77"/>
<text text-anchor="middle" x="35" y="-84" font-family="Helvetica,sans-Serif" font-size="10.00">sample_test</text>
</a>
</g>
</g>
<!-- Node2 -->
<g id="node2" class="node">
<title>Node2</title>
<g id="a_node2"><a xlink:href="../../dc/d97/classprobability_1_1geometric__distribution.html#a8a3ce0b03a692250c1a314eb85110316" target="_top" xlink:title="Generates a (discrete) sample according to the geometrical distribution.">
<polygon fill="white" stroke="black" points="111.5,-137.5 111.5,-167.5 246.5,-167.5 246.5,-137.5 111.5,-137.5"/>
<text text-anchor="start" x="119.5" y="-155.5" font-family="Helvetica,sans-Serif" font-size="10.00">probability::geometric</text>
<text text-anchor="middle" x="179" y="-144.5" font-family="Helvetica,sans-Serif" font-size="10.00">_distribution::draw_sample</text>
</a>
</g>
</g>
<!-- Node1&#45;&gt;Node2 -->
<g id="edge1" class="edge">
<title>Node1&#45;&gt;Node2</title>
<path fill="none" stroke="midnightblue" d="M50.57,-96.17C64.42,-105.09 86.05,-118.3 106,-127.5 110.69,-129.66 115.62,-131.74 120.61,-133.72"/>
<polygon fill="midnightblue" stroke="midnightblue" points="119.64,-137.1 130.23,-137.39 122.13,-130.56 119.64,-137.1"/>
</g>
<!-- Node6 -->
<g id="node6" class="node">
<title>Node6</title>
<g id="a_node6"><a target="_blank" xlink:href="http://en.cppreference.com/w/cpp/io/manip/endl.html#" xlink:title=" ">
<polygon fill="white" stroke="black" points="152,-99 152,-118 206,-118 206,-99 152,-99"/>
<text text-anchor="middle" x="179" y="-106" font-family="Helvetica,sans-Serif" font-size="10.00">std::endl</text>
</a>
</g>
</g>
<!-- Node1&#45;&gt;Node6 -->
<g id="edge5" class="edge">
<title>Node1&#45;&gt;Node6</title>
<path fill="none" stroke="midnightblue" d="M70.01,-91.77C91.69,-95.13 119.74,-99.47 141.82,-102.9"/>
<polygon fill="midnightblue" stroke="midnightblue" points="141.4,-106.37 151.82,-104.44 142.47,-99.45 141.4,-106.37"/>
</g>
<!-- Node7 -->
<g id="node7" class="node">
<title>Node7</title>
<g id="a_node7"><a xlink:href="../../dc/d97/classprobability_1_1geometric__distribution.html#af098d2ba2ae150ef158790b34d20183c" target="_top" xlink:title="The expected value of a geometrically distributed random variable X.">
<polygon fill="white" stroke="black" points="106,-49.5 106,-79.5 252,-79.5 252,-49.5 106,-49.5"/>
<text text-anchor="start" x="114" y="-67.5" font-family="Helvetica,sans-Serif" font-size="10.00">probability::geometric</text>
<text text-anchor="middle" x="179" y="-56.5" font-family="Helvetica,sans-Serif" font-size="10.00">_distribution::expected_value</text>
</a>
</g>
</g>
<!-- Node1&#45;&gt;Node7 -->
<g id="edge6" class="edge">
<title>Node1&#45;&gt;Node7</title>
<path fill="none" stroke="midnightblue" d="M70.01,-81.23C77.97,-80 86.78,-78.63 95.84,-77.23"/>
<polygon fill="midnightblue" stroke="midnightblue" points="96.4,-80.68 105.74,-75.69 95.32,-73.77 96.4,-80.68"/>
</g>
<!-- Node8 -->
<g id="node8" class="node">
<title>Node8</title>
<g id="a_node8"><a xlink:href="../../dc/d97/classprobability_1_1geometric__distribution.html#af466b4e51c24c3d71ac11d1a957411d4" target="_top" xlink:title="The variance of a geometrically distributed random variable X.">
<polygon fill="white" stroke="black" points="122,-0.5 122,-30.5 236,-30.5 236,-0.5 122,-0.5"/>
<text text-anchor="start" x="130" y="-18.5" font-family="Helvetica,sans-Serif" font-size="10.00">probability::geometric</text>
<text text-anchor="middle" x="179" y="-7.5" font-family="Helvetica,sans-Serif" font-size="10.00">_distribution::variance</text>
</a>
</g>
</g>
<!-- Node1&#45;&gt;Node8 -->
<g id="edge7" class="edge">
<title>Node1&#45;&gt;Node8</title>
<path fill="none" stroke="midnightblue" d="M48.27,-76.75C61.78,-66.4 84.45,-50.08 106,-39.5 109.73,-37.67 113.62,-35.93 117.6,-34.28"/>
<polygon fill="midnightblue" stroke="midnightblue" points="118.93,-37.52 126.96,-30.6 116.37,-31 118.93,-37.52"/>
</g>
<!-- Node3 -->
<g id="node3" class="node">
<title>Node3</title>
<g id="a_node3"><a xlink:href="../../d4/ded/namespaceprobability.html#a29f509e53d558dd9cb318048f2454d4b" target="_top" xlink:title="Returns a random number between [0,1].">
<polygon fill="white" stroke="black" points="296.5,-164.5 296.5,-194.5 403.5,-194.5 403.5,-164.5 296.5,-164.5"/>
<text text-anchor="start" x="304.5" y="-182.5" font-family="Helvetica,sans-Serif" font-size="10.00">probability::generate</text>
<text text-anchor="middle" x="350" y="-171.5" font-family="Helvetica,sans-Serif" font-size="10.00">_uniform</text>
</a>
</g>
</g>
<!-- Node2&#45;&gt;Node3 -->
<g id="edge2" class="edge">
<title>Node2&#45;&gt;Node3</title>
<path fill="none" stroke="midnightblue" d="M246.79,-163.17C259.82,-165.25 273.44,-167.43 286.34,-169.49"/>
<polygon fill="midnightblue" stroke="midnightblue" points="286.07,-172.99 296.49,-171.11 287.17,-166.08 286.07,-172.99"/>
</g>
<!-- Node4 -->
<g id="node4" class="node">
<title>Node4</title>
<g id="a_node4"><a xlink:href="../../dc/d97/classprobability_1_1geometric__distribution.html#afe8e3cec3f9ec89b697e674d1a4453cd" target="_top" xlink:title="The inverse cumulative distribution function.">
<polygon fill="white" stroke="black" points="288,-104 288,-145 412,-145 412,-104 288,-104"/>
<text text-anchor="start" x="296" y="-133" font-family="Helvetica,sans-Serif" font-size="10.00">probability::geometric</text>
<text text-anchor="start" x="296" y="-122" font-family="Helvetica,sans-Serif" font-size="10.00">_distribution::inverse</text>
<text text-anchor="middle" x="350" y="-111" font-family="Helvetica,sans-Serif" font-size="10.00">_cumulative_distribution</text>
</a>
</g>
</g>
<!-- Node2&#45;&gt;Node4 -->
<g id="edge3" class="edge">
<title>Node2&#45;&gt;Node4</title>
<path fill="none" stroke="midnightblue" d="M246.79,-141.43C256.97,-139.75 267.5,-138 277.76,-136.3"/>
<polygon fill="midnightblue" stroke="midnightblue" points="278.62,-139.71 287.91,-134.62 277.47,-132.8 278.62,-139.71"/>
</g>
<!-- Node5 -->
<g id="node5" class="node">
<title>Node5</title>
<g id="a_node5"><a target="_blank" xlink:href="http://en.cppreference.com/w/cpp/numeric/math/log.html#" xlink:title=" ">
<polygon fill="white" stroke="black" points="448,-115 448,-134 497,-134 497,-115 448,-115"/>
<text text-anchor="middle" x="472.5" y="-122" font-family="Helvetica,sans-Serif" font-size="10.00">std::log</text>
</a>
</g>
</g>
<!-- Node4&#45;&gt;Node5 -->
<g id="edge4" class="edge">
<title>Node4&#45;&gt;Node5</title>
<path fill="none" stroke="midnightblue" d="M412.31,-124.5C421.02,-124.5 429.71,-124.5 437.63,-124.5"/>
<polygon fill="midnightblue" stroke="midnightblue" points="437.9,-128 447.9,-124.5 437.9,-121 437.9,-128"/>
</g>
</g>
</svg>
        <g id="navigator" transform="translate(0 0)" fill="#404254">
                <rect fill="#f2f5e9" fill-opacity="0.5" stroke="#606060" stroke-width=".5" x="0" y="0" width="60" height="60"/>
                <use id="zoomplus" xlink:href="#zoomPlus" x="17" y="9" onmousedown="handleZoom(evt,'in')"/>
                <use id="zoomminus" xlink:href="#zoomMin" x="42" y="9" onmousedown="handleZoom(evt,'out')"/>
                <use id="reset" xlink:href="#resetDef" x="30" y="36" onmousedown="handleReset()"/>
                <g id="arrowUp" xlink:href="#dirArrow" transform="translate(30 24)" onmousedown="handlePan(0,-1)">
                  <use xlink:href="#rim" fill="#404040">
                        <set attributeName="fill" to="#808080" begin="arrowUp.mouseover" end="arrowUp.mouseout"/>
                  </use>
                  <path fill="none" stroke="white" stroke-width="1.5" d="M0,-3.0v7 M-2.5,-0.5L0,-3.0L2.5,-0.5"/>
                </g>
                <g id="arrowRight" xlink:href="#dirArrow" transform="rotate(90) translate(36 -43)" onmousedown="handlePan(1,0)">
                  <use xlink:href="#rim" fill="#404040">
                        <set attributeName="fill" to="#808080" begin="arrowRight.mouseover" end="arrowRight.mouseout"/>
                  </use>
                  <path fill="none" stroke="white" stroke-width="1.5" d="M0,-3.0v7 M-2.5,-0.5L0,-3.0L2.5,-0.5"/>
                </g>
                <g id="arrowDown" xlink:href="#dirArrow" transform="rotate(180) translate(-30 -48)" onmousedown="handlePan(0,1)">
                  <use xlink:href="#rim" fill="#404040">
                        <set attributeName="fill" to="#808080" begin="arrowDown.mouseover" end="arrowDown.mouseout"/>
                  </use>
                  <path fill="none" stroke="white" stroke-width="1.5" d="M0,-3.0v7 M-2.5,-0.5L0,-3.0L2.5,-0.5"/>
                </g>
                <g id="arrowLeft" xlink:href="#dirArrow" transform="rotate(270) translate(-36 17)" onmousedown="handlePan(-1,0)">
                  <use xlink:href="#rim" fill="#404040">
                        <set attributeName="fill" to="#808080" begin="arrowLeft.mouseover" end="arrowLeft.mouseout"/>
                  </use>
                  <path fill="none" stroke="white" stroke-width="1.5" d="M0,-3.0v7 M-2.5,-0.5L0,-3.0L2.5,-0.5"/>
                </g>
        </g>
        <svg viewBox="0 0 15 15" width="100%" height="30px" preserveAspectRatio="xMaxYMin meet">
         <g id="arrow_out" transform="scale(0.3 0.3)">
          <a xlink:href="geometric__dist_8cpp_a42df31ad2e41741e2b8ac4c3d1e900a0_cgraph_org.svg" target="_base">
           <rect id="button" ry="5" rx="5" y="6" x="6" height="38" width="38"
                fill="#f2f5e9" fill-opacity="0.5" stroke="#606060" stroke-width="1.0"/>
           <path id="arrow"
             d="M 11.500037,31.436501 C 11.940474,20.09759 22.043105,11.32322 32.158766,21.979434 L 37.068811,17.246167 C 37.068811,17.246167 37.088388,32 37.088388,32 L 22.160133,31.978069 C 22.160133,31.978069 26.997745,27.140456 26.997745,27.140456 C 18.528582,18.264221 13.291696,25.230495 11.500037,31.436501 z"
             style="fill:#404040;"/>
          </a>
         </g>
        </svg>
</svg>
