<?xml version="1.0" encoding="UTF-8" standalone="no"?>
<!DOCTYPE svg PUBLIC "-//W3C//DTD SVG 1.1//EN"
 "http://www.w3.org/Graphics/SVG/1.1/DTD/svg11.dtd">
<!-- Generated by graphviz version 2.49.1 (20210923.0004)
 -->
<!-- Title: probability::geometric_distribution::draw_sample Pages: 1 -->
<svg width="388pt" height="100pt"
 viewBox="0.00 0.00 388.00 99.50" xmlns="http://www.w3.org/2000/svg" xmlns:xlink="http://www.w3.org/1999/xlink">
<g id="graph0" class="graph" transform="scale(1 1) rotate(0) translate(4 95.5)">
<title>probability::geometric_distribution::draw_sample</title>
<polygon fill="white" stroke="transparent" points="-4,4 -4,-95.5 384,-95.5 384,4 -4,4"/>
<!-- Node1 -->
<g id="node1" class="node">
<title>Node1</title>
<g id="a_node1"><a xlink:title="Generates a (discrete) sample according to the geometrical distribution.">
<polygon fill="#bfbfbf" stroke="black" points="0,-33 0,-63 135,-63 135,-33 0,-33"/>
<text text-anchor="start" x="8" y="-51" font-family="Helvetica,sans-Serif" font-size="10.00">probability::geometric</text>
<text text-anchor="middle" x="67.5" y="-40" font-family="Helvetica,sans-Serif" font-size="10.00">_distribution::draw_sample</text>
</a>
</g>
</g>
<!-- Node2 -->
<g id="node2" class="node">
<title>Node2</title>
<g id="a_node2"><a xlink:href="../../d4/ded/namespaceprobability.html#a29f509e53d558dd9cb318048f2454d4b" target="_top" xlink:title="Returns a random number between [0,1].">
<polygon fill="white" stroke="black" points="179.5,-61 179.5,-91 286.5,-91 286.5,-61 179.5,-61"/>
<text text-anchor="start" x="187.5" y="-79" font-family="Helvetica,sans-Serif" font-size="10.00">probability::generate</text>
<text text-anchor="middle" x="233" y="-68" font-family="Helvetica,sans-Serif" font-size="10.00">_uniform</text>
</a>
</g>
</g>
<!-- Node1&#45;&gt;Node2 -->
<g id="edge1" class="edge">
<title>Node1&#45;&gt;Node2</title>
<path fill="none" stroke="midnightblue" d="M135,-59.39C146.31,-61.32 158.01,-63.33 169.22,-65.25"/>
<polygon fill="midnightblue" stroke="midnightblue" points="168.89,-68.74 179.34,-66.98 170.07,-61.84 168.89,-68.74"/>
</g>
<!-- Node3 -->
<g id="node3" class="node">
<title>Node3</title>
<g id="a_node3"><a xlink:href="../../dc/d97/classprobability_1_1geometric__distribution.html#afe8e3cec3f9ec89b697e674d1a4453cd" target="_top" xlink:title="The inverse cumulative distribution function.">
<polygon fill="white" stroke="black" points="171,-0.5 171,-41.5 295,-41.5 295,-0.5 171,-0.5"/>
<text text-anchor="start" x="179" y="-29.5" font-family="Helvetica,sans-Serif" font-size="10.00">probability::geometric</text>
<text text-anchor="start" x="179" y="-18.5" font-family="Helvetica,sans-Serif" font-size="10.00">_distribution::inverse</text>
<text text-anchor="middle" x="233" y="-7.5" font-family="Helvetica,sans-Serif" font-size="10.00">_cumulative_distribution</text>
</a>
</g>
</g>
<!-- Node1&#45;&gt;Node3 -->
<g id="edge2" class="edge">
<title>Node1&#45;&gt;Node3</title>
<path fill="none" stroke="midnightblue" d="M135,-37.02C143.52,-35.61 152.26,-34.17 160.85,-32.75"/>
<polygon fill="midnightblue" stroke="midnightblue" points="161.53,-36.18 170.83,-31.1 160.39,-29.28 161.53,-36.18"/>
</g>
<!-- Node4 -->
<g id="node4" class="node">
<title>Node4</title>
<g id="a_node4"><a target="_blank" xlink:href="http://en.cppreference.com/w/cpp/numeric/math/log.html#" xlink:title=" ">
<polygon fill="white" stroke="black" points="331,-11.5 331,-30.5 380,-30.5 380,-11.5 331,-11.5"/>
<text text-anchor="middle" x="355.5" y="-18.5" font-family="Helvetica,sans-Serif" font-size="10.00">std::log</text>
</a>
</g>
</g>
<!-- Node3&#45;&gt;Node4 -->
<g id="edge3" class="edge">
<title>Node3&#45;&gt;Node4</title>
<path fill="none" stroke="midnightblue" d="M295.31,-21C304.02,-21 312.71,-21 320.63,-21"/>
<polygon fill="midnightblue" stroke="midnightblue" points="320.9,-24.5 330.9,-21 320.9,-17.5 320.9,-24.5"/>
</g>
</g>
</svg>
