<?xml version="1.0" encoding="UTF-8" standalone="no"?>
<!DOCTYPE svg PUBLIC "-//W3C//DTD SVG 1.1//EN"
 "http://www.w3.org/Graphics/SVG/1.1/DTD/svg11.dtd">
<!-- Generated by graphviz version 2.49.1 (20210923.0004)
 -->
<!-- Title: probability::geometric_distribution::range_tries Pages: 1 -->
<svg width="384pt" height="88pt"
 viewBox="0.00 0.00 384.00 88.00" xmlns="http://www.w3.org/2000/svg" xmlns:xlink="http://www.w3.org/1999/xlink">
<g id="graph0" class="graph" transform="scale(1 1) rotate(0) translate(4 84)">
<title>probability::geometric_distribution::range_tries</title>
<polygon fill="white" stroke="transparent" points="-4,4 -4,-84 380,-84 380,4 -4,4"/>
<!-- Node1 -->
<g id="node1" class="node">
<title>Node1</title>
<g id="a_node1"><a xlink:title="This function computes the probability to have success in a given range of tries.">
<polygon fill="#bfbfbf" stroke="black" points="0,-19 0,-49 126,-49 126,-19 0,-19"/>
<text text-anchor="start" x="8" y="-37" font-family="Helvetica,sans-Serif" font-size="10.00">probability::geometric</text>
<text text-anchor="middle" x="63" y="-26" font-family="Helvetica,sans-Serif" font-size="10.00">_distribution::range_tries</text>
</a>
</g>
</g>
<!-- Node2 -->
<g id="node2" class="node">
<title>Node2</title>
<g id="a_node2"><a xlink:href="../../dc/d97/classprobability_1_1geometric__distribution.html#a7362f7161d86cd025888e55158033088" target="_top" xlink:title="The cumulative distribution function.">
<polygon fill="white" stroke="black" points="162,-38.5 162,-79.5 286,-79.5 286,-38.5 162,-38.5"/>
<text text-anchor="start" x="170" y="-67.5" font-family="Helvetica,sans-Serif" font-size="10.00">probability::geometric</text>
<text text-anchor="start" x="170" y="-56.5" font-family="Helvetica,sans-Serif" font-size="10.00">_distribution::cumulative</text>
<text text-anchor="middle" x="224" y="-45.5" font-family="Helvetica,sans-Serif" font-size="10.00">_distribution</text>
</a>
</g>
</g>
<!-- Node1&#45;&gt;Node2 -->
<g id="edge1" class="edge">
<title>Node1&#45;&gt;Node2</title>
<path fill="none" stroke="midnightblue" d="M126.38,-43.81C134.76,-45.13 143.41,-46.49 151.92,-47.82"/>
<polygon fill="midnightblue" stroke="midnightblue" points="151.42,-51.29 161.84,-49.38 152.5,-44.37 151.42,-51.29"/>
</g>
<!-- Node4 -->
<g id="node4" class="node">
<title>Node4</title>
<g id="a_node4"><a target="_blank" xlink:href="http://en.cppreference.com/w/cpp/types/numeric_limits/max.html#" xlink:title=" ">
<polygon fill="white" stroke="black" points="162,-0.5 162,-19.5 286,-19.5 286,-0.5 162,-0.5"/>
<text text-anchor="middle" x="224" y="-7.5" font-family="Helvetica,sans-Serif" font-size="10.00">std::numeric_limits::max</text>
</a>
</g>
</g>
<!-- Node1&#45;&gt;Node4 -->
<g id="edge3" class="edge">
<title>Node1&#45;&gt;Node4</title>
<path fill="none" stroke="midnightblue" d="M126.38,-24.58C134.76,-23.32 143.41,-22.01 151.92,-20.73"/>
<polygon fill="midnightblue" stroke="midnightblue" points="152.47,-24.19 161.84,-19.23 151.43,-17.26 152.47,-24.19"/>
</g>
<!-- Node3 -->
<g id="node3" class="node">
<title>Node3</title>
<g id="a_node3"><a target="_blank" xlink:href="http://en.cppreference.com/w/cpp/numeric/math/pow.html#" xlink:title=" ">
<polygon fill="white" stroke="black" points="322,-49.5 322,-68.5 376,-68.5 376,-49.5 322,-49.5"/>
<text text-anchor="middle" x="349" y="-56.5" font-family="Helvetica,sans-Serif" font-size="10.00">std::pow</text>
</a>
</g>
</g>
<!-- Node2&#45;&gt;Node3 -->
<g id="edge2" class="edge">
<title>Node2&#45;&gt;Node3</title>
<path fill="none" stroke="midnightblue" d="M286.14,-59C294.86,-59 303.59,-59 311.63,-59"/>
<polygon fill="midnightblue" stroke="midnightblue" points="311.74,-62.5 321.74,-59 311.74,-55.5 311.74,-62.5"/>
</g>
</g>
</svg>
