<?xml version="1.0" encoding="UTF-8" standalone="no"?>
<!DOCTYPE svg PUBLIC "-//W3C//DTD SVG 1.1//EN"
 "http://www.w3.org/Graphics/SVG/1.1/DTD/svg11.dtd">
<!-- Generated by graphviz version 2.49.1 (20210923.0004)
 -->
<!-- Title: probability::geometric_distribution::draw_sample Pages: 1 -->
<svg width="388pt" height="50pt"
 viewBox="0.00 0.00 388.00 50.00" xmlns="http://www.w3.org/2000/svg" xmlns:xlink="http://www.w3.org/1999/xlink">
<g id="graph0" class="graph" transform="scale(1 1) rotate(0) translate(4 46)">
<title>probability::geometric_distribution::draw_sample</title>
<polygon fill="white" stroke="transparent" points="-4,4 -4,-46 384,-46 384,4 -4,4"/>
<!-- Node1 -->
<g id="node1" class="node">
<title>Node1</title>
<g id="a_node1"><a xlink:title="Generates a (discrete) sample according to the geometrical distribution.">
<polygon fill="#bfbfbf" stroke="black" points="0,-6 0,-36 135,-36 135,-6 0,-6"/>
<text text-anchor="start" x="8" y="-24" font-family="Helvetica,sans-Serif" font-size="10.00">probability::geometric</text>
<text text-anchor="middle" x="67.5" y="-13" font-family="Helvetica,sans-Serif" font-size="10.00">_distribution::draw_sample</text>
</a>
</g>
</g>
<!-- Node2 -->
<g id="node2" class="node">
<title>Node2</title>
<g id="a_node2"><a xlink:href="../../dc/d97/classprobability_1_1geometric__distribution.html#afe8e3cec3f9ec89b697e674d1a4453cd" target="_top" xlink:title="The inverse cumulative distribution function.">
<polygon fill="white" stroke="black" points="171,-0.5 171,-41.5 295,-41.5 295,-0.5 171,-0.5"/>
<text text-anchor="start" x="179" y="-29.5" font-family="Helvetica,sans-Serif" font-size="10.00">probability::geometric</text>
<text text-anchor="start" x="179" y="-18.5" font-family="Helvetica,sans-Serif" font-size="10.00">_distribution::inverse</text>
<text text-anchor="middle" x="233" y="-7.5" font-family="Helvetica,sans-Serif" font-size="10.00">_cumulative_distribution</text>
</a>
</g>
</g>
<!-- Node1&#45;&gt;Node2 -->
<g id="edge1" class="edge">
<title>Node1&#45;&gt;Node2</title>
<path fill="none" stroke="midnightblue" d="M135,-21C143.42,-21 152.07,-21 160.57,-21"/>
<polygon fill="midnightblue" stroke="midnightblue" points="160.83,-24.5 170.83,-21 160.83,-17.5 160.83,-24.5"/>
</g>
<!-- Node3 -->
<g id="node3" class="node">
<title>Node3</title>
<g id="a_node3"><a target="_blank" xlink:href="http://en.cppreference.com/w/cpp/numeric/math/log.html#" xlink:title=" ">
<polygon fill="white" stroke="black" points="331,-11.5 331,-30.5 380,-30.5 380,-11.5 331,-11.5"/>
<text text-anchor="middle" x="355.5" y="-18.5" font-family="Helvetica,sans-Serif" font-size="10.00">std::log</text>
</a>
</g>
</g>
<!-- Node2&#45;&gt;Node3 -->
<g id="edge2" class="edge">
<title>Node2&#45;&gt;Node3</title>
<path fill="none" stroke="midnightblue" d="M295.31,-21C304.02,-21 312.71,-21 320.63,-21"/>
<polygon fill="midnightblue" stroke="midnightblue" points="320.9,-24.5 330.9,-21 320.9,-17.5 320.9,-24.5"/>
</g>
</g>
</svg>
