<?xml version="1.0" encoding="UTF-8" standalone="no"?>
<!DOCTYPE svg PUBLIC "-//W3C//DTD SVG 1.1//EN"
 "http://www.w3.org/Graphics/SVG/1.1/DTD/svg11.dtd">
<!-- Generated by graphviz version 2.49.1 (20210923.0004)
 -->
<!-- Title: probability::geometric_distribution::standard_deviation Pages: 1 -->
<svg width="273pt" height="78pt"
 viewBox="0.00 0.00 273.00 77.50" xmlns="http://www.w3.org/2000/svg" xmlns:xlink="http://www.w3.org/1999/xlink">
<g id="graph0" class="graph" transform="scale(1 1) rotate(0) translate(4 73.5)">
<title>probability::geometric_distribution::standard_deviation</title>
<polygon fill="white" stroke="transparent" points="-4,4 -4,-73.5 269,-73.5 269,4 -4,4"/>
<!-- Node1 -->
<g id="node1" class="node">
<title>Node1</title>
<g id="a_node1"><a xlink:title="The standard deviation of a geometrically distributed random variable X.">
<polygon fill="#bfbfbf" stroke="black" points="0,-17 0,-58 115,-58 115,-17 0,-17"/>
<text text-anchor="start" x="8" y="-46" font-family="Helvetica,sans-Serif" font-size="10.00">probability::geometric</text>
<text text-anchor="start" x="8" y="-35" font-family="Helvetica,sans-Serif" font-size="10.00">_distribution::standard</text>
<text text-anchor="middle" x="57.5" y="-24" font-family="Helvetica,sans-Serif" font-size="10.00">_deviation</text>
</a>
</g>
</g>
<!-- Node2 -->
<g id="node2" class="node">
<title>Node2</title>
<g id="a_node2"><a target="_blank" xlink:href="http://en.cppreference.com/w/cpp/numeric/math/sqrt.html#" xlink:title=" ">
<polygon fill="white" stroke="black" points="182,-50 182,-69 234,-69 234,-50 182,-50"/>
<text text-anchor="middle" x="208" y="-57" font-family="Helvetica,sans-Serif" font-size="10.00">std::sqrt</text>
</a>
</g>
</g>
<!-- Node1&#45;&gt;Node2 -->
<g id="edge1" class="edge">
<title>Node1&#45;&gt;Node2</title>
<path fill="none" stroke="midnightblue" d="M115.07,-45.88C134.07,-48.7 154.72,-51.75 171.62,-54.26"/>
<polygon fill="midnightblue" stroke="midnightblue" points="171.21,-57.74 181.61,-55.74 172.24,-50.81 171.21,-57.74"/>
</g>
<!-- Node3 -->
<g id="node3" class="node">
<title>Node3</title>
<g id="a_node3"><a xlink:href="../../dc/d97/classprobability_1_1geometric__distribution.html#af466b4e51c24c3d71ac11d1a957411d4" target="_top" xlink:title="The variance of a geometrically distributed random variable X.">
<polygon fill="white" stroke="black" points="151,-0.5 151,-30.5 265,-30.5 265,-0.5 151,-0.5"/>
<text text-anchor="start" x="159" y="-18.5" font-family="Helvetica,sans-Serif" font-size="10.00">probability::geometric</text>
<text text-anchor="middle" x="208" y="-7.5" font-family="Helvetica,sans-Serif" font-size="10.00">_distribution::variance</text>
</a>
</g>
</g>
<!-- Node1&#45;&gt;Node3 -->
<g id="edge2" class="edge">
<title>Node1&#45;&gt;Node3</title>
<path fill="none" stroke="midnightblue" d="M115.07,-29.12C123.43,-27.88 132.11,-26.59 140.66,-25.33"/>
<polygon fill="midnightblue" stroke="midnightblue" points="141.21,-28.78 150.59,-23.86 140.19,-21.86 141.21,-28.78"/>
</g>
</g>
</svg>
